%TF.GenerationSoftware,KiCad,Pcbnew,(5.1.10-1-10_14)*%
%TF.CreationDate,2021-05-06T19:08:34+01:00*%
%TF.ProjectId,haxophone001,6861786f-7068-46f6-9e65-3030312e6b69,rev?*%
%TF.SameCoordinates,Original*%
%TF.FileFunction,Profile,NP*%
%FSLAX46Y46*%
G04 Gerber Fmt 4.6, Leading zero omitted, Abs format (unit mm)*
G04 Created by KiCad (PCBNEW (5.1.10-1-10_14)) date 2021-05-06 19:08:34*
%MOMM*%
%LPD*%
G01*
G04 APERTURE LIST*
%TA.AperFunction,Profile*%
%ADD10C,0.050000*%
%TD*%
G04 APERTURE END LIST*
D10*
X146050000Y-154940000D02*
X118110000Y-154940000D01*
X118110000Y-157480000D02*
X146050000Y-157480000D01*
X118110000Y-157480000D02*
X118110000Y-161290000D01*
X83820000Y-158750000D02*
X83820000Y-160020000D01*
X86360000Y-161290000D02*
X86360000Y-158750000D01*
X83820000Y-156210000D02*
X86360000Y-156210000D01*
X83820000Y-158750000D02*
X86360000Y-158750000D01*
X76200000Y-67310000D02*
X76200000Y-24130000D01*
X80010000Y-67310000D02*
X80010000Y-58420000D01*
X76200000Y-69850000D02*
X80010000Y-69850000D01*
X76200000Y-67310000D02*
X80010000Y-67310000D01*
X127000000Y-166370000D02*
X123190000Y-166370000D01*
X123190000Y-166370000D02*
G75*
G02*
X118110000Y-161290000I0J5080000D01*
G01*
X127000000Y-166370000D02*
G75*
G02*
X132080000Y-171450000I0J-5080000D01*
G01*
X81280000Y-166370000D02*
X80010000Y-166370000D01*
X86360000Y-161290000D02*
G75*
G02*
X81280000Y-166370000I-5080000J0D01*
G01*
X74930000Y-171450000D02*
G75*
G02*
X80010000Y-166370000I5080000J0D01*
G01*
X172720000Y-176530000D02*
X173990000Y-176530000D01*
X151130000Y-176530000D02*
X172720000Y-176530000D01*
X146050000Y-171450000D02*
X146050000Y-157480000D01*
X151130000Y-176530000D02*
G75*
G02*
X146050000Y-171450000I0J5080000D01*
G01*
X132080000Y-171450000D02*
G75*
G02*
X127000000Y-176530000I-5080000J0D01*
G01*
X80010000Y-176530000D02*
G75*
G02*
X74930000Y-171450000I0J5080000D01*
G01*
X85090000Y-91440000D02*
G75*
G02*
X80010000Y-86360000I0J5080000D01*
G01*
X80010000Y-58420000D02*
G75*
G02*
X85090000Y-53340000I5080000J0D01*
G01*
X143510000Y-35560000D02*
G75*
G02*
X138430000Y-40640000I-5080000J0D01*
G01*
X124460000Y-40640000D02*
G75*
G02*
X119380000Y-35560000I0J5080000D01*
G01*
X134620000Y-62230000D02*
G75*
G02*
X129540000Y-67310000I-5080000J0D01*
G01*
X129540000Y-43180000D02*
G75*
G02*
X134620000Y-48260000I0J-5080000D01*
G01*
X151130000Y-15240000D02*
X173990000Y-15240000D01*
X124460000Y-15240000D02*
X138430000Y-15240000D01*
X143510000Y-21590000D02*
X143510000Y-20320000D01*
X146050000Y-21590000D02*
X143510000Y-21590000D01*
X146050000Y-20320000D02*
X146050000Y-21590000D01*
X119380000Y-20320000D02*
X119380000Y-21590000D01*
X116840000Y-20320000D02*
X116840000Y-21590000D01*
X119380000Y-21590000D02*
X116840000Y-21590000D01*
X46990000Y-15240000D02*
X71120000Y-15240000D01*
X91440000Y-20320000D02*
X91440000Y-21590000D01*
X76200000Y-21590000D02*
X76200000Y-20320000D01*
X91440000Y-21590000D02*
X76200000Y-21590000D01*
X138430000Y-15240000D02*
G75*
G02*
X143510000Y-20320000I0J-5080000D01*
G01*
X146050000Y-20320000D02*
G75*
G02*
X151130000Y-15240000I5080000J0D01*
G01*
X119380000Y-20320000D02*
G75*
G02*
X124460000Y-15240000I5080000J0D01*
G01*
X111760000Y-15240000D02*
G75*
G02*
X116840000Y-20320000I0J-5080000D01*
G01*
X91440000Y-20320000D02*
G75*
G02*
X96520000Y-15240000I5080000J0D01*
G01*
X71120000Y-15240000D02*
G75*
G02*
X76200000Y-20320000I0J-5080000D01*
G01*
X83820000Y-160020000D02*
G75*
G02*
X78740000Y-165100000I-5080000J0D01*
G01*
X129540000Y-67310000D02*
X118110000Y-67310000D01*
X134620000Y-48260000D02*
X134620000Y-62230000D01*
X146050000Y-24130000D02*
X143510000Y-24130000D01*
X116840000Y-43180000D02*
X116840000Y-40640000D01*
X124460000Y-40640000D02*
X138430000Y-40640000D01*
X119380000Y-24130000D02*
X116840000Y-24130000D01*
X143510000Y-35560000D02*
X143510000Y-24130000D01*
X119380000Y-35560000D02*
X119380000Y-24130000D01*
X83820000Y-99060000D02*
X83820000Y-156210000D01*
X76200000Y-99060000D02*
X83820000Y-99060000D01*
X76200000Y-69850000D02*
X76200000Y-99060000D01*
X91440000Y-24130000D02*
X76200000Y-24130000D01*
X111760000Y-15240000D02*
X96520000Y-15240000D01*
X41910000Y-160020000D02*
X41910000Y-20320000D01*
X116840000Y-40640000D02*
X116840000Y-24130000D01*
X129540000Y-43180000D02*
X116840000Y-43180000D01*
X118110000Y-67310000D02*
X118110000Y-154940000D01*
X91440000Y-53340000D02*
X91440000Y-24130000D01*
X85090000Y-53340000D02*
X91440000Y-53340000D01*
X80010000Y-86360000D02*
X80010000Y-69850000D01*
X86360000Y-91440000D02*
X85090000Y-91440000D01*
X86360000Y-156210000D02*
X86360000Y-91440000D01*
X46990000Y-165100000D02*
X78740000Y-165100000D01*
X146050000Y-24130000D02*
X146050000Y-154940000D01*
X173990000Y-15240000D02*
G75*
G02*
X179070000Y-20320000I0J-5080000D01*
G01*
X179070000Y-171450000D02*
G75*
G02*
X173990000Y-176530000I-5080000J0D01*
G01*
X46990000Y-165100000D02*
G75*
G02*
X41910000Y-160020000I0J5080000D01*
G01*
X41910000Y-20320000D02*
G75*
G02*
X46990000Y-15240000I5080000J0D01*
G01*
X127000000Y-176530000D02*
X80010000Y-176530000D01*
X179070000Y-20320000D02*
X179070000Y-171450000D01*
M02*
