M48
; DRILL file {KiCad (5.1.10-1-10_14)} date Thursday, May 06, 2021 at 07:08:39 PM
; FORMAT={-:-/ absolute / inch / decimal}
; #@! TF.CreationDate,2021-05-06T19:08:39+01:00
; #@! TF.GenerationSoftware,Kicad,Pcbnew,(5.1.10-1-10_14)
; #@! TF.FileFunction,NonPlated,1,2,NPTH
FMAT,2
INCH
T1C0.0689
T2C0.1200
T3C0.1570
%
G90
G05
T1
X1.9Y-5.2
X2.3Y-1.1
X2.3Y-1.85
X2.3Y-2.6
X2.3Y-4.45
X2.3Y-5.2
X2.3Y-5.95
X2.65Y-5.2
X2.7Y-1.1
X2.7Y-1.85
X2.7Y-2.6
X2.7Y-4.45
X2.7Y-5.95
X3.05Y-5.2
X3.9Y-1.1
X3.9Y-1.95
X3.9Y-2.7
X3.9Y-3.45
X3.9Y-4.35
X3.9Y-5.1
X3.9Y-5.85
X4.3Y-1.1
X4.3Y-1.95
X4.3Y-2.7
X4.3Y-3.45
X4.3Y-4.35
X4.3Y-5.1
X4.3Y-5.85
X4.65Y-2.15
X4.9561Y-1.1817
X5.05Y-2.15
X5.3561Y-1.1817
X6.05Y-1.1
X6.05Y-1.85
X6.05Y-2.6
X6.1Y-4.4
X6.1Y-5.15
X6.1Y-5.9
X6.35Y-3.35
X6.45Y-1.1
X6.45Y-1.85
X6.45Y-2.6
X6.5Y-4.4
X6.5Y-5.15
X6.5Y-5.9
X6.75Y-3.35
T2
X2.0312Y-4.175
X2.0312Y-5.675
X2.9688Y-4.175
X2.9688Y-5.675
T3
X2.0312Y-4.775
X2.0312Y-6.275
X2.1Y-5.2
X2.5Y-1.1
X2.5Y-1.85
X2.5Y-2.6
X2.5Y-4.45
X2.5Y-5.95
X2.85Y-5.2
X2.9688Y-4.775
X2.9688Y-6.275
X4.1Y-1.1
X4.1Y-1.95
X4.1Y-2.7
X4.1Y-3.45
X4.1Y-4.35
X4.1Y-5.1
X4.1Y-5.85
X4.85Y-2.15
X5.1561Y-1.1817
X6.25Y-1.1
X6.25Y-1.85
X6.25Y-2.6
X6.3Y-4.4
X6.3Y-5.15
X6.3Y-5.9
X6.55Y-3.35
T0
M30
