%TF.GenerationSoftware,KiCad,Pcbnew,(5.1.10-1-10_14)*%
%TF.CreationDate,2021-05-06T19:08:34+01:00*%
%TF.ProjectId,haxophone001,6861786f-7068-46f6-9e65-3030312e6b69,rev?*%
%TF.SameCoordinates,Original*%
%TF.FileFunction,Soldermask,Top*%
%TF.FilePolarity,Negative*%
%FSLAX46Y46*%
G04 Gerber Fmt 4.6, Leading zero omitted, Abs format (unit mm)*
G04 Created by KiCad (PCBNEW (5.1.10-1-10_14)) date 2021-05-06 19:08:34*
%MOMM*%
%LPD*%
G01*
G04 APERTURE LIST*
%ADD10R,1.000000X1.000000*%
%ADD11C,3.987800*%
%ADD12C,1.750000*%
%ADD13C,3.048000*%
%ADD14O,1.700000X1.700000*%
%ADD15R,1.700000X1.700000*%
%ADD16R,0.900000X1.200000*%
G04 APERTURE END LIST*
D10*
%TO.C,REF\u002A\u002A*%
X80010000Y-68580000D03*
%TD*%
%TO.C,REF\u002A\u002A*%
X76200000Y-68580000D03*
%TD*%
%TO.C,REF\u002A\u002A*%
X85090000Y-157480000D03*
%TD*%
%TO.C,REF\u002A\u002A*%
X91440000Y-22860000D03*
%TD*%
%TO.C,REF\u002A\u002A*%
X76200000Y-22860000D03*
%TD*%
%TO.C,REF\u002A\u002A*%
X144780000Y-22860000D03*
%TD*%
%TO.C,REF\u002A\u002A*%
X118110000Y-22860000D03*
%TD*%
%TO.C,REF\u002A\u002A*%
X146050000Y-156210000D03*
%TD*%
%TO.C,REF\u002A\u002A*%
X118110000Y-156210000D03*
%TD*%
D11*
%TO.C,MX7*%
X63500000Y-151130000D03*
D12*
X58420000Y-151130000D03*
X68580000Y-151130000D03*
D13*
X51593750Y-144145000D03*
X75406250Y-144145000D03*
D11*
X51593750Y-159385000D03*
X75406250Y-159385000D03*
%TD*%
%TO.C,MX23*%
X158750000Y-46990000D03*
D12*
X153670000Y-46990000D03*
X163830000Y-46990000D03*
%TD*%
D14*
%TO.C,J2*%
X88900000Y-83820000D03*
X86360000Y-83820000D03*
X88900000Y-81280000D03*
X86360000Y-81280000D03*
X88900000Y-78740000D03*
X86360000Y-78740000D03*
X88900000Y-76200000D03*
X86360000Y-76200000D03*
X88900000Y-73660000D03*
X86360000Y-73660000D03*
X88900000Y-71120000D03*
X86360000Y-71120000D03*
X88900000Y-68580000D03*
X86360000Y-68580000D03*
X88900000Y-66040000D03*
D15*
X86360000Y-66040000D03*
%TD*%
D11*
%TO.C,MX2*%
X63500000Y-46990000D03*
D12*
X58420000Y-46990000D03*
X68580000Y-46990000D03*
%TD*%
D16*
%TO.C,D8*%
X127380000Y-38100000D03*
X124080000Y-38100000D03*
%TD*%
D11*
%TO.C,MX16*%
X104140000Y-148590000D03*
D12*
X99060000Y-148590000D03*
X109220000Y-148590000D03*
%TD*%
D16*
%TO.C,D16*%
X100710000Y-157480000D03*
X97410000Y-157480000D03*
%TD*%
D11*
%TO.C,MX4*%
X63500000Y-113030000D03*
D12*
X58420000Y-113030000D03*
X68580000Y-113030000D03*
D13*
X51593750Y-106045000D03*
X75406250Y-106045000D03*
D11*
X51593750Y-121285000D03*
X75406250Y-121285000D03*
%TD*%
%TO.C,MX22*%
X160020000Y-130810000D03*
D12*
X154940000Y-130810000D03*
X165100000Y-130810000D03*
%TD*%
D11*
%TO.C,MX21*%
X160020000Y-111760000D03*
D12*
X154940000Y-111760000D03*
X165100000Y-111760000D03*
%TD*%
D11*
%TO.C,MX20*%
X166370000Y-85090000D03*
D12*
X161290000Y-85090000D03*
X171450000Y-85090000D03*
%TD*%
D11*
%TO.C,MX19*%
X158750000Y-66040000D03*
D12*
X153670000Y-66040000D03*
X163830000Y-66040000D03*
%TD*%
D11*
%TO.C,MX18*%
X160020000Y-149860000D03*
D12*
X154940000Y-149860000D03*
X165100000Y-149860000D03*
%TD*%
D11*
%TO.C,MX17*%
X158750000Y-27940000D03*
D12*
X153670000Y-27940000D03*
X163830000Y-27940000D03*
%TD*%
D11*
%TO.C,MX15*%
X104140000Y-129540000D03*
D12*
X99060000Y-129540000D03*
X109220000Y-129540000D03*
%TD*%
D11*
%TO.C,MX14*%
X104140000Y-110490000D03*
D12*
X99060000Y-110490000D03*
X109220000Y-110490000D03*
%TD*%
D11*
%TO.C,MX13*%
X104140000Y-87630000D03*
D12*
X99060000Y-87630000D03*
X109220000Y-87630000D03*
%TD*%
D11*
%TO.C,MX12*%
X104140000Y-68580000D03*
D12*
X99060000Y-68580000D03*
X109220000Y-68580000D03*
%TD*%
D16*
%TO.C,D4*%
X60070000Y-121920000D03*
X56770000Y-121920000D03*
%TD*%
%TO.C,D5*%
X67690000Y-140970000D03*
X64390000Y-140970000D03*
%TD*%
%TO.C,D6*%
X49910000Y-140970000D03*
X46610000Y-140970000D03*
%TD*%
%TO.C,D7*%
X60070000Y-160020000D03*
X56770000Y-160020000D03*
%TD*%
%TO.C,D9*%
X97410000Y-36830000D03*
X100710000Y-36830000D03*
%TD*%
%TO.C,D10*%
X97410000Y-58420000D03*
X100710000Y-58420000D03*
%TD*%
%TO.C,D11*%
X116460000Y-63500000D03*
X119760000Y-63500000D03*
%TD*%
%TO.C,D12*%
X100710000Y-77470000D03*
X97410000Y-77470000D03*
%TD*%
%TO.C,D13*%
X100710000Y-96520000D03*
X97410000Y-96520000D03*
%TD*%
%TO.C,D14*%
X100710000Y-119380000D03*
X97410000Y-119380000D03*
%TD*%
%TO.C,D15*%
X100710000Y-138430000D03*
X97410000Y-138430000D03*
%TD*%
%TO.C,D17*%
X152020000Y-36830000D03*
X155320000Y-36830000D03*
%TD*%
%TO.C,D18*%
X153290000Y-158750000D03*
X156590000Y-158750000D03*
%TD*%
%TO.C,D19*%
X152020000Y-74930000D03*
X155320000Y-74930000D03*
%TD*%
%TO.C,D20*%
X159640000Y-93980000D03*
X162940000Y-93980000D03*
%TD*%
%TO.C,D21*%
X156590000Y-120650000D03*
X153290000Y-120650000D03*
%TD*%
%TO.C,D22*%
X156590000Y-139700000D03*
X153290000Y-139700000D03*
%TD*%
%TO.C,D23*%
X155320000Y-55880000D03*
X152020000Y-55880000D03*
%TD*%
D15*
%TO.C,J3*%
X78740000Y-170180000D03*
D14*
X78740000Y-172720000D03*
X81280000Y-170180000D03*
X81280000Y-172720000D03*
X83820000Y-170180000D03*
X83820000Y-172720000D03*
X86360000Y-170180000D03*
X86360000Y-172720000D03*
X88900000Y-170180000D03*
X88900000Y-172720000D03*
X91440000Y-170180000D03*
X91440000Y-172720000D03*
X93980000Y-170180000D03*
X93980000Y-172720000D03*
X96520000Y-170180000D03*
X96520000Y-172720000D03*
X99060000Y-170180000D03*
X99060000Y-172720000D03*
X101600000Y-170180000D03*
X101600000Y-172720000D03*
X104140000Y-170180000D03*
X104140000Y-172720000D03*
X106680000Y-170180000D03*
X106680000Y-172720000D03*
X109220000Y-170180000D03*
X109220000Y-172720000D03*
X111760000Y-170180000D03*
X111760000Y-172720000D03*
X114300000Y-170180000D03*
X114300000Y-172720000D03*
X116840000Y-170180000D03*
X116840000Y-172720000D03*
X119380000Y-170180000D03*
X119380000Y-172720000D03*
X121920000Y-170180000D03*
X121920000Y-172720000D03*
X124460000Y-170180000D03*
X124460000Y-172720000D03*
X127000000Y-170180000D03*
X127000000Y-172720000D03*
%TD*%
%TO.C,J6*%
X88900000Y-59690000D03*
D15*
X86360000Y-59690000D03*
%TD*%
D14*
%TO.C,J5*%
X132080000Y-17780000D03*
D15*
X129540000Y-17780000D03*
%TD*%
D11*
%TO.C,MX8*%
X130965000Y-30015000D03*
D12*
X125885000Y-30015000D03*
X136045000Y-30015000D03*
%TD*%
D11*
%TO.C,MX11*%
X123190000Y-54610000D03*
D12*
X118110000Y-54610000D03*
X128270000Y-54610000D03*
%TD*%
D11*
%TO.C,MX6*%
X53340000Y-132080000D03*
D12*
X48260000Y-132080000D03*
X58420000Y-132080000D03*
%TD*%
D11*
%TO.C,MX10*%
X104140000Y-49530000D03*
D12*
X99060000Y-49530000D03*
X109220000Y-49530000D03*
%TD*%
D11*
%TO.C,MX9*%
X104140000Y-27940000D03*
D12*
X99060000Y-27940000D03*
X109220000Y-27940000D03*
%TD*%
D11*
%TO.C,MX5*%
X72390000Y-132080000D03*
D12*
X67310000Y-132080000D03*
X77470000Y-132080000D03*
%TD*%
D16*
%TO.C,D2*%
X55500000Y-55880000D03*
X58800000Y-55880000D03*
%TD*%
%TO.C,D3*%
X55500000Y-74930000D03*
X58800000Y-74930000D03*
%TD*%
%TO.C,D1*%
X55500000Y-36830000D03*
X58800000Y-36830000D03*
%TD*%
D14*
%TO.C,J1*%
X71120000Y-90170000D03*
X68580000Y-90170000D03*
X66040000Y-90170000D03*
X63500000Y-90170000D03*
X60960000Y-90170000D03*
X58420000Y-90170000D03*
X55880000Y-90170000D03*
D15*
X53340000Y-90170000D03*
%TD*%
D11*
%TO.C,MX1*%
X63500000Y-27940000D03*
D12*
X58420000Y-27940000D03*
X68580000Y-27940000D03*
%TD*%
D14*
%TO.C,J4*%
X172720000Y-99060000D03*
X170180000Y-99060000D03*
X167640000Y-99060000D03*
X165100000Y-99060000D03*
X162560000Y-99060000D03*
X160020000Y-99060000D03*
X157480000Y-99060000D03*
D15*
X154940000Y-99060000D03*
%TD*%
D11*
%TO.C,MX3*%
X63500000Y-66040000D03*
D12*
X58420000Y-66040000D03*
X68580000Y-66040000D03*
%TD*%
M02*
