%TF.GenerationSoftware,KiCad,Pcbnew,(5.1.10-1-10_14)*%
%TF.CreationDate,2021-05-06T19:08:34+01:00*%
%TF.ProjectId,haxophone001,6861786f-7068-46f6-9e65-3030312e6b69,rev?*%
%TF.SameCoordinates,Original*%
%TF.FileFunction,Copper,L2,Bot*%
%TF.FilePolarity,Positive*%
%FSLAX46Y46*%
G04 Gerber Fmt 4.6, Leading zero omitted, Abs format (unit mm)*
G04 Created by KiCad (PCBNEW (5.1.10-1-10_14)) date 2021-05-06 19:08:34*
%MOMM*%
%LPD*%
G01*
G04 APERTURE LIST*
%TA.AperFunction,ComponentPad*%
%ADD10R,1.000000X1.000000*%
%TD*%
%TA.AperFunction,ComponentPad*%
%ADD11C,2.250000*%
%TD*%
%TA.AperFunction,ComponentPad*%
%ADD12O,1.700000X1.700000*%
%TD*%
%TA.AperFunction,ComponentPad*%
%ADD13R,1.700000X1.700000*%
%TD*%
%TA.AperFunction,Conductor*%
%ADD14C,0.250000*%
%TD*%
G04 APERTURE END LIST*
D10*
%TO.P,REF\u002A\u002A,1*%
%TO.N,N/C*%
X80010000Y-68580000D03*
%TD*%
%TO.P,REF\u002A\u002A,1*%
%TO.N,N/C*%
X76200000Y-68580000D03*
%TD*%
%TO.P,REF\u002A\u002A,1*%
%TO.N,N/C*%
X85090000Y-157480000D03*
%TD*%
%TO.P,REF\u002A\u002A,1*%
%TO.N,N/C*%
X91440000Y-22860000D03*
%TD*%
%TO.P,REF\u002A\u002A,1*%
%TO.N,N/C*%
X76200000Y-22860000D03*
%TD*%
%TO.P,REF\u002A\u002A,1*%
%TO.N,N/C*%
X144780000Y-22860000D03*
%TD*%
%TO.P,REF\u002A\u002A,1*%
%TO.N,N/C*%
X118110000Y-22860000D03*
%TD*%
%TO.P,REF\u002A\u002A,1*%
%TO.N,N/C*%
X146050000Y-156210000D03*
%TD*%
%TO.P,REF\u002A\u002A,1*%
%TO.N,N/C*%
X118110000Y-156210000D03*
%TD*%
D11*
%TO.P,MX7,2*%
%TO.N,Net-(D7-Pad2)*%
X66040000Y-146050000D03*
%TO.P,MX7,1*%
%TO.N,COL0_0*%
X59690000Y-148590000D03*
%TD*%
%TO.P,MX23,2*%
%TO.N,Net-(D23-Pad2)*%
X161290000Y-41910000D03*
%TO.P,MX23,1*%
%TO.N,COL2_2*%
X154940000Y-44450000D03*
%TD*%
D12*
%TO.P,J2,16*%
%TO.N,COL2*%
X88900000Y-83820000D03*
%TO.P,J2,15*%
%TO.N,COL0*%
X86360000Y-83820000D03*
%TO.P,J2,14*%
%TO.N,ROW6*%
X88900000Y-81280000D03*
%TO.P,J2,13*%
X86360000Y-81280000D03*
%TO.P,J2,12*%
%TO.N,ROW5*%
X88900000Y-78740000D03*
%TO.P,J2,11*%
X86360000Y-78740000D03*
%TO.P,J2,10*%
%TO.N,ROW4*%
X88900000Y-76200000D03*
%TO.P,J2,9*%
X86360000Y-76200000D03*
%TO.P,J2,8*%
%TO.N,ROW3*%
X88900000Y-73660000D03*
%TO.P,J2,7*%
X86360000Y-73660000D03*
%TO.P,J2,6*%
%TO.N,ROW2*%
X88900000Y-71120000D03*
%TO.P,J2,5*%
X86360000Y-71120000D03*
%TO.P,J2,4*%
%TO.N,ROW1*%
X88900000Y-68580000D03*
%TO.P,J2,3*%
X86360000Y-68580000D03*
%TO.P,J2,2*%
%TO.N,ROW0*%
X88900000Y-66040000D03*
D13*
%TO.P,J2,1*%
X86360000Y-66040000D03*
%TD*%
D11*
%TO.P,MX2,2*%
%TO.N,Net-(D2-Pad2)*%
X66040000Y-41910000D03*
%TO.P,MX2,1*%
%TO.N,COL0_0*%
X59690000Y-44450000D03*
%TD*%
%TO.P,MX16,2*%
%TO.N,Net-(D16-Pad2)*%
X106680000Y-143510000D03*
%TO.P,MX16,1*%
%TO.N,COL1*%
X100330000Y-146050000D03*
%TD*%
%TO.P,MX4,2*%
%TO.N,Net-(D4-Pad2)*%
X66040000Y-107950000D03*
%TO.P,MX4,1*%
%TO.N,COL0_0*%
X59690000Y-110490000D03*
%TD*%
%TO.P,MX22,2*%
%TO.N,Net-(D22-Pad2)*%
X162560000Y-125730000D03*
%TO.P,MX22,1*%
%TO.N,COL2_2*%
X156210000Y-128270000D03*
%TD*%
%TO.P,MX21,2*%
%TO.N,Net-(D21-Pad2)*%
X162560000Y-106680000D03*
%TO.P,MX21,1*%
%TO.N,COL2_2*%
X156210000Y-109220000D03*
%TD*%
%TO.P,MX20,2*%
%TO.N,Net-(D20-Pad2)*%
X168910000Y-80010000D03*
%TO.P,MX20,1*%
%TO.N,COL2_2*%
X162560000Y-82550000D03*
%TD*%
%TO.P,MX19,2*%
%TO.N,Net-(D19-Pad2)*%
X161290000Y-60960000D03*
%TO.P,MX19,1*%
%TO.N,COL2_2*%
X154940000Y-63500000D03*
%TD*%
%TO.P,MX18,2*%
%TO.N,Net-(D18-Pad2)*%
X162560000Y-144780000D03*
%TO.P,MX18,1*%
%TO.N,COL2_2*%
X156210000Y-147320000D03*
%TD*%
%TO.P,MX17,2*%
%TO.N,Net-(D17-Pad2)*%
X161290000Y-22860000D03*
%TO.P,MX17,1*%
%TO.N,COL2_2*%
X154940000Y-25400000D03*
%TD*%
%TO.P,MX15,2*%
%TO.N,Net-(D15-Pad2)*%
X106680000Y-124460000D03*
%TO.P,MX15,1*%
%TO.N,COL1*%
X100330000Y-127000000D03*
%TD*%
%TO.P,MX14,2*%
%TO.N,Net-(D14-Pad2)*%
X106680000Y-105410000D03*
%TO.P,MX14,1*%
%TO.N,COL1*%
X100330000Y-107950000D03*
%TD*%
%TO.P,MX13,2*%
%TO.N,Net-(D13-Pad2)*%
X106680000Y-82550000D03*
%TO.P,MX13,1*%
%TO.N,COL1*%
X100330000Y-85090000D03*
%TD*%
%TO.P,MX12,2*%
%TO.N,Net-(D12-Pad2)*%
X106680000Y-63500000D03*
%TO.P,MX12,1*%
%TO.N,COL1*%
X100330000Y-66040000D03*
%TD*%
D13*
%TO.P,J3,1*%
%TO.N,N/C*%
X78740000Y-170180000D03*
D12*
%TO.P,J3,2*%
X78740000Y-172720000D03*
%TO.P,J3,3*%
%TO.N,COL3*%
X81280000Y-170180000D03*
%TO.P,J3,4*%
%TO.N,N/C*%
X81280000Y-172720000D03*
%TO.P,J3,5*%
X83820000Y-170180000D03*
%TO.P,J3,6*%
X83820000Y-172720000D03*
%TO.P,J3,7*%
X86360000Y-170180000D03*
%TO.P,J3,8*%
%TO.N,ROW0*%
X86360000Y-172720000D03*
%TO.P,J3,9*%
%TO.N,N/C*%
X88900000Y-170180000D03*
%TO.P,J3,10*%
%TO.N,ROW1*%
X88900000Y-172720000D03*
%TO.P,J3,11*%
%TO.N,ROW3*%
X91440000Y-170180000D03*
%TO.P,J3,12*%
%TO.N,ROW4*%
X91440000Y-172720000D03*
%TO.P,J3,13*%
%TO.N,COL2*%
X93980000Y-170180000D03*
%TO.P,J3,14*%
%TO.N,N/C*%
X93980000Y-172720000D03*
%TO.P,J3,15*%
%TO.N,ROW5*%
X96520000Y-170180000D03*
%TO.P,J3,16*%
%TO.N,ROW6*%
X96520000Y-172720000D03*
%TO.P,J3,17*%
%TO.N,N/C*%
X99060000Y-170180000D03*
%TO.P,J3,18*%
%TO.N,ROW7*%
X99060000Y-172720000D03*
%TO.P,J3,19*%
%TO.N,N/C*%
X101600000Y-170180000D03*
%TO.P,J3,20*%
X101600000Y-172720000D03*
%TO.P,J3,21*%
X104140000Y-170180000D03*
%TO.P,J3,22*%
%TO.N,COL0*%
X104140000Y-172720000D03*
%TO.P,J3,23*%
%TO.N,N/C*%
X106680000Y-170180000D03*
%TO.P,J3,24*%
X106680000Y-172720000D03*
%TO.P,J3,25*%
X109220000Y-170180000D03*
%TO.P,J3,26*%
X109220000Y-172720000D03*
%TO.P,J3,27*%
X111760000Y-170180000D03*
%TO.P,J3,28*%
X111760000Y-172720000D03*
%TO.P,J3,29*%
X114300000Y-170180000D03*
%TO.P,J3,30*%
X114300000Y-172720000D03*
%TO.P,J3,31*%
X116840000Y-170180000D03*
%TO.P,J3,32*%
X116840000Y-172720000D03*
%TO.P,J3,33*%
X119380000Y-170180000D03*
%TO.P,J3,34*%
X119380000Y-172720000D03*
%TO.P,J3,35*%
X121920000Y-170180000D03*
%TO.P,J3,36*%
%TO.N,ROW2*%
X121920000Y-172720000D03*
%TO.P,J3,37*%
%TO.N,COL1*%
X124460000Y-170180000D03*
%TO.P,J3,38*%
%TO.N,N/C*%
X124460000Y-172720000D03*
%TO.P,J3,39*%
X127000000Y-170180000D03*
%TO.P,J3,40*%
X127000000Y-172720000D03*
%TD*%
%TO.P,J6,2*%
%TO.N,COL3*%
X88900000Y-59690000D03*
D13*
%TO.P,J6,1*%
%TO.N,ROW0*%
X86360000Y-59690000D03*
%TD*%
D12*
%TO.P,J5,2*%
%TO.N,Net-(J5-Pad2)*%
X132080000Y-17780000D03*
D13*
%TO.P,J5,1*%
%TO.N,Net-(D8-Pad1)*%
X129540000Y-17780000D03*
%TD*%
D11*
%TO.P,MX8,2*%
%TO.N,Net-(D8-Pad2)*%
X133505000Y-24935000D03*
%TO.P,MX8,1*%
%TO.N,Net-(J5-Pad2)*%
X127155000Y-27475000D03*
%TD*%
%TO.P,MX11,2*%
%TO.N,Net-(D11-Pad2)*%
X125730000Y-49530000D03*
%TO.P,MX11,1*%
%TO.N,COL1*%
X119380000Y-52070000D03*
%TD*%
%TO.P,MX6,2*%
%TO.N,Net-(D6-Pad2)*%
X55880000Y-127000000D03*
%TO.P,MX6,1*%
%TO.N,COL0_0*%
X49530000Y-129540000D03*
%TD*%
%TO.P,MX10,2*%
%TO.N,Net-(D10-Pad2)*%
X106680000Y-44450000D03*
%TO.P,MX10,1*%
%TO.N,COL1*%
X100330000Y-46990000D03*
%TD*%
%TO.P,MX9,2*%
%TO.N,Net-(D9-Pad2)*%
X106680000Y-22860000D03*
%TO.P,MX9,1*%
%TO.N,COL1*%
X100330000Y-25400000D03*
%TD*%
%TO.P,MX5,2*%
%TO.N,Net-(D5-Pad2)*%
X74930000Y-127000000D03*
%TO.P,MX5,1*%
%TO.N,COL0_0*%
X68580000Y-129540000D03*
%TD*%
D12*
%TO.P,J1,8*%
%TO.N,COL0_0*%
X71120000Y-90170000D03*
%TO.P,J1,7*%
%TO.N,ROW0_6*%
X68580000Y-90170000D03*
%TO.P,J1,6*%
%TO.N,ROW0_5*%
X66040000Y-90170000D03*
%TO.P,J1,5*%
%TO.N,ROW0_4*%
X63500000Y-90170000D03*
%TO.P,J1,4*%
%TO.N,ROW0_3*%
X60960000Y-90170000D03*
%TO.P,J1,3*%
%TO.N,ROW0_2*%
X58420000Y-90170000D03*
%TO.P,J1,2*%
%TO.N,ROW0_1*%
X55880000Y-90170000D03*
D13*
%TO.P,J1,1*%
%TO.N,ROW0_0*%
X53340000Y-90170000D03*
%TD*%
D11*
%TO.P,MX1,2*%
%TO.N,Net-(D1-Pad2)*%
X66040000Y-22860000D03*
%TO.P,MX1,1*%
%TO.N,COL0_0*%
X59690000Y-25400000D03*
%TD*%
D12*
%TO.P,J4,8*%
%TO.N,COL2_2*%
X172720000Y-99060000D03*
%TO.P,J4,7*%
%TO.N,ROW2_6*%
X170180000Y-99060000D03*
%TO.P,J4,6*%
%TO.N,ROW2_5*%
X167640000Y-99060000D03*
%TO.P,J4,5*%
%TO.N,ROW2_4*%
X165100000Y-99060000D03*
%TO.P,J4,4*%
%TO.N,ROW2_3*%
X162560000Y-99060000D03*
%TO.P,J4,3*%
%TO.N,ROW2_2*%
X160020000Y-99060000D03*
%TO.P,J4,2*%
%TO.N,ROW2_1*%
X157480000Y-99060000D03*
D13*
%TO.P,J4,1*%
%TO.N,ROW2_0*%
X154940000Y-99060000D03*
%TD*%
D11*
%TO.P,MX3,2*%
%TO.N,Net-(D3-Pad2)*%
X66040000Y-60960000D03*
%TO.P,MX3,1*%
%TO.N,COL0_0*%
X59690000Y-63500000D03*
%TD*%
D14*
%TO.N,ROW0*%
X86360000Y-59690000D02*
X86360000Y-66040000D01*
X87535300Y-170743702D02*
X86360000Y-171919002D01*
X89228500Y-164138600D02*
X87535300Y-165831800D01*
X86360000Y-171919002D02*
X86360000Y-172720000D01*
X89228500Y-92226100D02*
X89228500Y-164138600D01*
X84734300Y-68473700D02*
X84734300Y-87731900D01*
X85992700Y-67215300D02*
X84734300Y-68473700D01*
X86360000Y-66040000D02*
X86360000Y-67215300D01*
X84734300Y-87731900D02*
X89228500Y-92226100D01*
X87535300Y-165831800D02*
X87535300Y-170743702D01*
X86360000Y-67215300D02*
X85992700Y-67215300D01*
%TO.N,ROW2*%
X120744700Y-171544700D02*
X121920000Y-172720000D01*
X120744700Y-167334000D02*
X120744700Y-171544700D01*
X107265500Y-153854800D02*
X120744700Y-167334000D01*
X88900000Y-71120000D02*
X88900000Y-72295300D01*
X97859600Y-145630700D02*
X106083700Y-153854800D01*
X97859600Y-80887600D02*
X97859600Y-145630700D01*
X106083700Y-153854800D02*
X107265500Y-153854800D01*
X88900000Y-72295300D02*
X89267300Y-72295300D01*
X89267300Y-72295300D02*
X97859600Y-80887600D01*
%TO.N,ROW3*%
X86360000Y-73660000D02*
X86360000Y-74835300D01*
X91440000Y-167640000D02*
X91440000Y-91992400D01*
X91440000Y-91992400D02*
X85184700Y-85737100D01*
X85184700Y-85737100D02*
X85184700Y-75643200D01*
X85184700Y-75643200D02*
X85992600Y-74835300D01*
X85992600Y-74835300D02*
X86360000Y-74835300D01*
X91440000Y-167640000D02*
X91440000Y-170180000D01*
%TO.N,COL2*%
X88900000Y-84995300D02*
X93980000Y-90075300D01*
X93980000Y-90075300D02*
X93980000Y-167640000D01*
X88900000Y-83820000D02*
X88900000Y-84995300D01*
X93980000Y-167640000D02*
X93980000Y-170180000D01*
%TO.N,COL0*%
X102964700Y-156774900D02*
X102964700Y-171544700D01*
X95560600Y-149370800D02*
X102964700Y-156774900D01*
X95560600Y-88733700D02*
X95560600Y-149370800D01*
X87535300Y-83452600D02*
X88343200Y-82644700D01*
X88343200Y-82644700D02*
X89471600Y-82644700D01*
X87535300Y-83820000D02*
X87535300Y-83452600D01*
X89471600Y-82644700D02*
X95560600Y-88733700D01*
X102964700Y-171544700D02*
X104140000Y-172720000D01*
X86360000Y-83820000D02*
X87535300Y-83820000D01*
%TO.N,COL1*%
X100330000Y-25400000D02*
X100330000Y-46990000D01*
X100330000Y-66040000D02*
X100330000Y-85090000D01*
X100330000Y-85090000D02*
X100330000Y-107950000D01*
X100330000Y-52070000D02*
X119380000Y-52070000D01*
X100330000Y-46990000D02*
X100330000Y-52070000D01*
X100330000Y-52070000D02*
X100330000Y-66040000D01*
X100330000Y-146050000D02*
X100330000Y-127000000D01*
X100330000Y-127000000D02*
X100330000Y-107950000D01*
%TO.N,COL0_0*%
X59690000Y-63500000D02*
X59690000Y-44450000D01*
X59690000Y-25400000D02*
X59690000Y-44450000D01*
X59690000Y-148590000D02*
X59690000Y-130820600D01*
X59690000Y-130820600D02*
X58409400Y-129540000D01*
X58409400Y-129540000D02*
X49530000Y-129540000D01*
X59690000Y-128259400D02*
X67299400Y-128259400D01*
X67299400Y-128259400D02*
X68580000Y-129540000D01*
X59690000Y-110490000D02*
X59690000Y-128259400D01*
X59690000Y-128259400D02*
X58409400Y-129540000D01*
X71120000Y-91345300D02*
X59690000Y-102775300D01*
X59690000Y-102775300D02*
X59690000Y-110490000D01*
X71120000Y-90757600D02*
X71120000Y-91345300D01*
X71120000Y-90757600D02*
X71120000Y-90170000D01*
X71120000Y-88994700D02*
X59690000Y-77564700D01*
X59690000Y-77564700D02*
X59690000Y-63500000D01*
X71120000Y-90170000D02*
X71120000Y-88994700D01*
%TO.N,COL2_2*%
X154940000Y-25400000D02*
X154940000Y-44450000D01*
X156210000Y-147320000D02*
X156210000Y-128270000D01*
X156210000Y-128270000D02*
X156210000Y-109220000D01*
X154940000Y-63500000D02*
X154940000Y-44450000D01*
X162560000Y-82550000D02*
X154940000Y-74930000D01*
X154940000Y-74930000D02*
X154940000Y-63500000D01*
X172720000Y-99060000D02*
X172132400Y-99060000D01*
X167760400Y-94687900D02*
X163830000Y-98618300D01*
X163830000Y-98618300D02*
X163830000Y-99520400D01*
X163830000Y-99520400D02*
X156210000Y-107140400D01*
X156210000Y-107140400D02*
X156210000Y-109220000D01*
X172132400Y-99060000D02*
X167760400Y-94687900D01*
X167760400Y-94687900D02*
X167309400Y-94237000D01*
X167309400Y-94237000D02*
X167309400Y-94236900D01*
X167309400Y-94236900D02*
X162560000Y-89487500D01*
X162560000Y-89487500D02*
X162560000Y-82550000D01*
%TO.N,Net-(J5-Pad2)*%
X127155000Y-27475000D02*
X127155000Y-23880300D01*
X127155000Y-23880300D02*
X132080000Y-18955300D01*
X132080000Y-17780000D02*
X132080000Y-18955300D01*
%TD*%
M02*
