M48
; DRILL file {KiCad (5.1.10-1-10_14)} date Thursday, May 06, 2021 at 07:08:39 PM
; FORMAT={-:-/ absolute / inch / decimal}
; #@! TF.CreationDate,2021-05-06T19:08:39+01:00
; #@! TF.GenerationSoftware,Kicad,Pcbnew,(5.1.10-1-10_14)
; #@! TF.FileFunction,Plated,1,2,PTH
FMAT,2
INCH
T1C0.0197
T2C0.0394
T3C0.0579
%
G90
G05
T1
X3.0Y-0.9
X3.0Y-2.7
X3.15Y-2.7
X3.35Y-6.2
X3.6Y-0.9
X4.65Y-0.9
X4.65Y-6.15
X5.7Y-0.9
X5.75Y-6.15
T2
X2.1Y-3.55
X2.2Y-3.55
X2.3Y-3.55
X2.4Y-3.55
X2.5Y-3.55
X2.6Y-3.55
X2.7Y-3.55
X2.8Y-3.55
X3.1Y-6.7
X3.1Y-6.8
X3.2Y-6.7
X3.2Y-6.8
X3.3Y-6.7
X3.3Y-6.8
X3.4Y-2.35
X3.4Y-2.6
X3.4Y-2.7
X3.4Y-2.8
X3.4Y-2.9
X3.4Y-3.0
X3.4Y-3.1
X3.4Y-3.2
X3.4Y-3.3
X3.4Y-6.7
X3.4Y-6.8
X3.5Y-2.35
X3.5Y-2.6
X3.5Y-2.7
X3.5Y-2.8
X3.5Y-2.9
X3.5Y-3.0
X3.5Y-3.1
X3.5Y-3.2
X3.5Y-3.3
X3.5Y-6.7
X3.5Y-6.8
X3.6Y-6.7
X3.6Y-6.8
X3.7Y-6.7
X3.7Y-6.8
X3.8Y-6.7
X3.8Y-6.8
X3.9Y-6.7
X3.9Y-6.8
X4.0Y-6.7
X4.0Y-6.8
X4.1Y-6.7
X4.1Y-6.8
X4.2Y-6.7
X4.2Y-6.8
X4.3Y-6.7
X4.3Y-6.8
X4.4Y-6.7
X4.4Y-6.8
X4.5Y-6.7
X4.5Y-6.8
X4.6Y-6.7
X4.6Y-6.8
X4.7Y-6.7
X4.7Y-6.8
X4.8Y-6.7
X4.8Y-6.8
X4.9Y-6.7
X4.9Y-6.8
X5.0Y-6.7
X5.0Y-6.8
X5.1Y-0.7
X5.2Y-0.7
X6.1Y-3.9
X6.2Y-3.9
X6.3Y-3.9
X6.4Y-3.9
X6.5Y-3.9
X6.6Y-3.9
X6.7Y-3.9
X6.8Y-3.9
T3
X1.95Y-5.1
X2.2Y-5.0
X2.35Y-1.0
X2.35Y-1.75
X2.35Y-2.5
X2.35Y-4.35
X2.35Y-5.85
X2.6Y-0.9
X2.6Y-1.65
X2.6Y-2.4
X2.6Y-4.25
X2.6Y-5.75
X2.7Y-5.1
X2.95Y-5.0
X3.95Y-1.0
X3.95Y-1.85
X3.95Y-2.6
X3.95Y-3.35
X3.95Y-4.25
X3.95Y-5.0
X3.95Y-5.75
X4.2Y-0.9
X4.2Y-1.75
X4.2Y-2.5
X4.2Y-3.25
X4.2Y-4.15
X4.2Y-4.9
X4.2Y-5.65
X4.7Y-2.05
X4.95Y-1.95
X5.0061Y-1.0817
X5.2561Y-0.9817
X6.1Y-1.0
X6.1Y-1.75
X6.1Y-2.5
X6.15Y-4.3
X6.15Y-5.05
X6.15Y-5.8
X6.35Y-0.9
X6.35Y-1.65
X6.35Y-2.4
X6.4Y-3.25
X6.4Y-4.2
X6.4Y-4.95
X6.4Y-5.7
X6.65Y-3.15
T0
M30
