%TF.GenerationSoftware,KiCad,Pcbnew,(5.1.10-1-10_14)*%
%TF.CreationDate,2021-05-06T19:08:34+01:00*%
%TF.ProjectId,haxophone001,6861786f-7068-46f6-9e65-3030312e6b69,rev?*%
%TF.SameCoordinates,Original*%
%TF.FileFunction,Legend,Top*%
%TF.FilePolarity,Positive*%
%FSLAX46Y46*%
G04 Gerber Fmt 4.6, Leading zero omitted, Abs format (unit mm)*
G04 Created by KiCad (PCBNEW (5.1.10-1-10_14)) date 2021-05-06 19:08:34*
%MOMM*%
%LPD*%
G01*
G04 APERTURE LIST*
%ADD10C,0.150000*%
%ADD11C,0.120000*%
G04 APERTURE END LIST*
D10*
X135636190Y-17407380D02*
X135636190Y-16407380D01*
X136064761Y-17407380D02*
X136064761Y-16883571D01*
X136017142Y-16788333D01*
X135921904Y-16740714D01*
X135779047Y-16740714D01*
X135683809Y-16788333D01*
X135636190Y-16835952D01*
X136969523Y-17407380D02*
X136969523Y-16883571D01*
X136921904Y-16788333D01*
X136826666Y-16740714D01*
X136636190Y-16740714D01*
X136540952Y-16788333D01*
X136969523Y-17359761D02*
X136874285Y-17407380D01*
X136636190Y-17407380D01*
X136540952Y-17359761D01*
X136493333Y-17264523D01*
X136493333Y-17169285D01*
X136540952Y-17074047D01*
X136636190Y-17026428D01*
X136874285Y-17026428D01*
X136969523Y-16978809D01*
X137350476Y-17407380D02*
X137874285Y-16740714D01*
X137350476Y-16740714D02*
X137874285Y-17407380D01*
X138398095Y-17407380D02*
X138302857Y-17359761D01*
X138255238Y-17312142D01*
X138207619Y-17216904D01*
X138207619Y-16931190D01*
X138255238Y-16835952D01*
X138302857Y-16788333D01*
X138398095Y-16740714D01*
X138540952Y-16740714D01*
X138636190Y-16788333D01*
X138683809Y-16835952D01*
X138731428Y-16931190D01*
X138731428Y-17216904D01*
X138683809Y-17312142D01*
X138636190Y-17359761D01*
X138540952Y-17407380D01*
X138398095Y-17407380D01*
X135731428Y-18390714D02*
X135969523Y-19057380D01*
X136207619Y-18390714D01*
X136779047Y-18057380D02*
X136874285Y-18057380D01*
X136969523Y-18105000D01*
X137017142Y-18152619D01*
X137064761Y-18247857D01*
X137112380Y-18438333D01*
X137112380Y-18676428D01*
X137064761Y-18866904D01*
X137017142Y-18962142D01*
X136969523Y-19009761D01*
X136874285Y-19057380D01*
X136779047Y-19057380D01*
X136683809Y-19009761D01*
X136636190Y-18962142D01*
X136588571Y-18866904D01*
X136540952Y-18676428D01*
X136540952Y-18438333D01*
X136588571Y-18247857D01*
X136636190Y-18152619D01*
X136683809Y-18105000D01*
X136779047Y-18057380D01*
X137540952Y-18962142D02*
X137588571Y-19009761D01*
X137540952Y-19057380D01*
X137493333Y-19009761D01*
X137540952Y-18962142D01*
X137540952Y-19057380D01*
X138540952Y-19057380D02*
X137969523Y-19057380D01*
X138255238Y-19057380D02*
X138255238Y-18057380D01*
X138160000Y-18200238D01*
X138064761Y-18295476D01*
X137969523Y-18343095D01*
X60706190Y-83447380D02*
X60706190Y-82447380D01*
X61134761Y-83447380D02*
X61134761Y-82923571D01*
X61087142Y-82828333D01*
X60991904Y-82780714D01*
X60849047Y-82780714D01*
X60753809Y-82828333D01*
X60706190Y-82875952D01*
X62039523Y-83447380D02*
X62039523Y-82923571D01*
X61991904Y-82828333D01*
X61896666Y-82780714D01*
X61706190Y-82780714D01*
X61610952Y-82828333D01*
X62039523Y-83399761D02*
X61944285Y-83447380D01*
X61706190Y-83447380D01*
X61610952Y-83399761D01*
X61563333Y-83304523D01*
X61563333Y-83209285D01*
X61610952Y-83114047D01*
X61706190Y-83066428D01*
X61944285Y-83066428D01*
X62039523Y-83018809D01*
X62420476Y-83447380D02*
X62944285Y-82780714D01*
X62420476Y-82780714D02*
X62944285Y-83447380D01*
X63468095Y-83447380D02*
X63372857Y-83399761D01*
X63325238Y-83352142D01*
X63277619Y-83256904D01*
X63277619Y-82971190D01*
X63325238Y-82875952D01*
X63372857Y-82828333D01*
X63468095Y-82780714D01*
X63610952Y-82780714D01*
X63706190Y-82828333D01*
X63753809Y-82875952D01*
X63801428Y-82971190D01*
X63801428Y-83256904D01*
X63753809Y-83352142D01*
X63706190Y-83399761D01*
X63610952Y-83447380D01*
X63468095Y-83447380D01*
X60801428Y-84430714D02*
X61039523Y-85097380D01*
X61277619Y-84430714D01*
X61849047Y-84097380D02*
X61944285Y-84097380D01*
X62039523Y-84145000D01*
X62087142Y-84192619D01*
X62134761Y-84287857D01*
X62182380Y-84478333D01*
X62182380Y-84716428D01*
X62134761Y-84906904D01*
X62087142Y-85002142D01*
X62039523Y-85049761D01*
X61944285Y-85097380D01*
X61849047Y-85097380D01*
X61753809Y-85049761D01*
X61706190Y-85002142D01*
X61658571Y-84906904D01*
X61610952Y-84716428D01*
X61610952Y-84478333D01*
X61658571Y-84287857D01*
X61706190Y-84192619D01*
X61753809Y-84145000D01*
X61849047Y-84097380D01*
X62610952Y-85002142D02*
X62658571Y-85049761D01*
X62610952Y-85097380D01*
X62563333Y-85049761D01*
X62610952Y-85002142D01*
X62610952Y-85097380D01*
X63610952Y-85097380D02*
X63039523Y-85097380D01*
X63325238Y-85097380D02*
X63325238Y-84097380D01*
X63230000Y-84240238D01*
X63134761Y-84335476D01*
X63039523Y-84383095D01*
X171196190Y-165997380D02*
X171196190Y-164997380D01*
X171624761Y-165997380D02*
X171624761Y-165473571D01*
X171577142Y-165378333D01*
X171481904Y-165330714D01*
X171339047Y-165330714D01*
X171243809Y-165378333D01*
X171196190Y-165425952D01*
X172529523Y-165997380D02*
X172529523Y-165473571D01*
X172481904Y-165378333D01*
X172386666Y-165330714D01*
X172196190Y-165330714D01*
X172100952Y-165378333D01*
X172529523Y-165949761D02*
X172434285Y-165997380D01*
X172196190Y-165997380D01*
X172100952Y-165949761D01*
X172053333Y-165854523D01*
X172053333Y-165759285D01*
X172100952Y-165664047D01*
X172196190Y-165616428D01*
X172434285Y-165616428D01*
X172529523Y-165568809D01*
X172910476Y-165997380D02*
X173434285Y-165330714D01*
X172910476Y-165330714D02*
X173434285Y-165997380D01*
X173958095Y-165997380D02*
X173862857Y-165949761D01*
X173815238Y-165902142D01*
X173767619Y-165806904D01*
X173767619Y-165521190D01*
X173815238Y-165425952D01*
X173862857Y-165378333D01*
X173958095Y-165330714D01*
X174100952Y-165330714D01*
X174196190Y-165378333D01*
X174243809Y-165425952D01*
X174291428Y-165521190D01*
X174291428Y-165806904D01*
X174243809Y-165902142D01*
X174196190Y-165949761D01*
X174100952Y-165997380D01*
X173958095Y-165997380D01*
X171291428Y-166980714D02*
X171529523Y-167647380D01*
X171767619Y-166980714D01*
X172339047Y-166647380D02*
X172434285Y-166647380D01*
X172529523Y-166695000D01*
X172577142Y-166742619D01*
X172624761Y-166837857D01*
X172672380Y-167028333D01*
X172672380Y-167266428D01*
X172624761Y-167456904D01*
X172577142Y-167552142D01*
X172529523Y-167599761D01*
X172434285Y-167647380D01*
X172339047Y-167647380D01*
X172243809Y-167599761D01*
X172196190Y-167552142D01*
X172148571Y-167456904D01*
X172100952Y-167266428D01*
X172100952Y-167028333D01*
X172148571Y-166837857D01*
X172196190Y-166742619D01*
X172243809Y-166695000D01*
X172339047Y-166647380D01*
X173100952Y-167552142D02*
X173148571Y-167599761D01*
X173100952Y-167647380D01*
X173053333Y-167599761D01*
X173100952Y-167552142D01*
X173100952Y-167647380D01*
X174100952Y-167647380D02*
X173529523Y-167647380D01*
X173815238Y-167647380D02*
X173815238Y-166647380D01*
X173720000Y-166790238D01*
X173624761Y-166885476D01*
X173529523Y-166933095D01*
X110236190Y-164727380D02*
X110236190Y-163727380D01*
X110664761Y-164727380D02*
X110664761Y-164203571D01*
X110617142Y-164108333D01*
X110521904Y-164060714D01*
X110379047Y-164060714D01*
X110283809Y-164108333D01*
X110236190Y-164155952D01*
X111569523Y-164727380D02*
X111569523Y-164203571D01*
X111521904Y-164108333D01*
X111426666Y-164060714D01*
X111236190Y-164060714D01*
X111140952Y-164108333D01*
X111569523Y-164679761D02*
X111474285Y-164727380D01*
X111236190Y-164727380D01*
X111140952Y-164679761D01*
X111093333Y-164584523D01*
X111093333Y-164489285D01*
X111140952Y-164394047D01*
X111236190Y-164346428D01*
X111474285Y-164346428D01*
X111569523Y-164298809D01*
X111950476Y-164727380D02*
X112474285Y-164060714D01*
X111950476Y-164060714D02*
X112474285Y-164727380D01*
X112998095Y-164727380D02*
X112902857Y-164679761D01*
X112855238Y-164632142D01*
X112807619Y-164536904D01*
X112807619Y-164251190D01*
X112855238Y-164155952D01*
X112902857Y-164108333D01*
X112998095Y-164060714D01*
X113140952Y-164060714D01*
X113236190Y-164108333D01*
X113283809Y-164155952D01*
X113331428Y-164251190D01*
X113331428Y-164536904D01*
X113283809Y-164632142D01*
X113236190Y-164679761D01*
X113140952Y-164727380D01*
X112998095Y-164727380D01*
X110331428Y-165710714D02*
X110569523Y-166377380D01*
X110807619Y-165710714D01*
X111379047Y-165377380D02*
X111474285Y-165377380D01*
X111569523Y-165425000D01*
X111617142Y-165472619D01*
X111664761Y-165567857D01*
X111712380Y-165758333D01*
X111712380Y-165996428D01*
X111664761Y-166186904D01*
X111617142Y-166282142D01*
X111569523Y-166329761D01*
X111474285Y-166377380D01*
X111379047Y-166377380D01*
X111283809Y-166329761D01*
X111236190Y-166282142D01*
X111188571Y-166186904D01*
X111140952Y-165996428D01*
X111140952Y-165758333D01*
X111188571Y-165567857D01*
X111236190Y-165472619D01*
X111283809Y-165425000D01*
X111379047Y-165377380D01*
X112140952Y-166282142D02*
X112188571Y-166329761D01*
X112140952Y-166377380D01*
X112093333Y-166329761D01*
X112140952Y-166282142D01*
X112140952Y-166377380D01*
X113140952Y-166377380D02*
X112569523Y-166377380D01*
X112855238Y-166377380D02*
X112855238Y-165377380D01*
X112760000Y-165520238D01*
X112664761Y-165615476D01*
X112569523Y-165663095D01*
D11*
%TO.C,REF\u002A\u002A*%
X79310000Y-67880000D02*
X80710000Y-67880000D01*
X80710000Y-67880000D02*
X80710000Y-69280000D01*
X80710000Y-69280000D02*
X79310000Y-69280000D01*
X79310000Y-69280000D02*
X79310000Y-67880000D01*
X75500000Y-67880000D02*
X76900000Y-67880000D01*
X76900000Y-67880000D02*
X76900000Y-69280000D01*
X76900000Y-69280000D02*
X75500000Y-69280000D01*
X75500000Y-69280000D02*
X75500000Y-67880000D01*
X84390000Y-156780000D02*
X85790000Y-156780000D01*
X85790000Y-156780000D02*
X85790000Y-158180000D01*
X85790000Y-158180000D02*
X84390000Y-158180000D01*
X84390000Y-158180000D02*
X84390000Y-156780000D01*
X90740000Y-22160000D02*
X92140000Y-22160000D01*
X92140000Y-22160000D02*
X92140000Y-23560000D01*
X92140000Y-23560000D02*
X90740000Y-23560000D01*
X90740000Y-23560000D02*
X90740000Y-22160000D01*
X75500000Y-22160000D02*
X76900000Y-22160000D01*
X76900000Y-22160000D02*
X76900000Y-23560000D01*
X76900000Y-23560000D02*
X75500000Y-23560000D01*
X75500000Y-23560000D02*
X75500000Y-22160000D01*
X144080000Y-22160000D02*
X145480000Y-22160000D01*
X145480000Y-22160000D02*
X145480000Y-23560000D01*
X145480000Y-23560000D02*
X144080000Y-23560000D01*
X144080000Y-23560000D02*
X144080000Y-22160000D01*
X117410000Y-22160000D02*
X118810000Y-22160000D01*
X118810000Y-22160000D02*
X118810000Y-23560000D01*
X118810000Y-23560000D02*
X117410000Y-23560000D01*
X117410000Y-23560000D02*
X117410000Y-22160000D01*
X145350000Y-155510000D02*
X146750000Y-155510000D01*
X146750000Y-155510000D02*
X146750000Y-156910000D01*
X146750000Y-156910000D02*
X145350000Y-156910000D01*
X145350000Y-156910000D02*
X145350000Y-155510000D01*
X117410000Y-155510000D02*
X118810000Y-155510000D01*
X118810000Y-155510000D02*
X118810000Y-156910000D01*
X118810000Y-156910000D02*
X117410000Y-156910000D01*
X117410000Y-156910000D02*
X117410000Y-155510000D01*
%TO.C,J2*%
X85030000Y-64710000D02*
X86360000Y-64710000D01*
X85030000Y-66040000D02*
X85030000Y-64710000D01*
X87630000Y-64710000D02*
X90230000Y-64710000D01*
X87630000Y-67310000D02*
X87630000Y-64710000D01*
X85030000Y-67310000D02*
X87630000Y-67310000D01*
X90230000Y-64710000D02*
X90230000Y-85150000D01*
X85030000Y-67310000D02*
X85030000Y-85150000D01*
X85030000Y-85150000D02*
X90230000Y-85150000D01*
%TO.C,D8*%
X123480000Y-37100000D02*
X123480000Y-39100000D01*
X123480000Y-39100000D02*
X127380000Y-39100000D01*
X123480000Y-37100000D02*
X127380000Y-37100000D01*
%TO.C,D16*%
X96810000Y-156480000D02*
X100710000Y-156480000D01*
X96810000Y-158480000D02*
X100710000Y-158480000D01*
X96810000Y-156480000D02*
X96810000Y-158480000D01*
%TO.C,D4*%
X56170000Y-120920000D02*
X56170000Y-122920000D01*
X56170000Y-122920000D02*
X60070000Y-122920000D01*
X56170000Y-120920000D02*
X60070000Y-120920000D01*
%TO.C,D5*%
X63790000Y-139970000D02*
X63790000Y-141970000D01*
X63790000Y-141970000D02*
X67690000Y-141970000D01*
X63790000Y-139970000D02*
X67690000Y-139970000D01*
%TO.C,D6*%
X46010000Y-139970000D02*
X46010000Y-141970000D01*
X46010000Y-141970000D02*
X49910000Y-141970000D01*
X46010000Y-139970000D02*
X49910000Y-139970000D01*
%TO.C,D7*%
X56170000Y-159020000D02*
X56170000Y-161020000D01*
X56170000Y-161020000D02*
X60070000Y-161020000D01*
X56170000Y-159020000D02*
X60070000Y-159020000D01*
%TO.C,D9*%
X96810000Y-35830000D02*
X100710000Y-35830000D01*
X96810000Y-37830000D02*
X100710000Y-37830000D01*
X96810000Y-35830000D02*
X96810000Y-37830000D01*
%TO.C,D10*%
X96810000Y-57420000D02*
X100710000Y-57420000D01*
X96810000Y-59420000D02*
X100710000Y-59420000D01*
X96810000Y-57420000D02*
X96810000Y-59420000D01*
%TO.C,D11*%
X115860000Y-62500000D02*
X119760000Y-62500000D01*
X115860000Y-64500000D02*
X119760000Y-64500000D01*
X115860000Y-62500000D02*
X115860000Y-64500000D01*
%TO.C,D12*%
X96810000Y-76470000D02*
X96810000Y-78470000D01*
X96810000Y-78470000D02*
X100710000Y-78470000D01*
X96810000Y-76470000D02*
X100710000Y-76470000D01*
%TO.C,D13*%
X96810000Y-95520000D02*
X96810000Y-97520000D01*
X96810000Y-97520000D02*
X100710000Y-97520000D01*
X96810000Y-95520000D02*
X100710000Y-95520000D01*
%TO.C,D14*%
X96810000Y-118380000D02*
X96810000Y-120380000D01*
X96810000Y-120380000D02*
X100710000Y-120380000D01*
X96810000Y-118380000D02*
X100710000Y-118380000D01*
%TO.C,D15*%
X96810000Y-137430000D02*
X96810000Y-139430000D01*
X96810000Y-139430000D02*
X100710000Y-139430000D01*
X96810000Y-137430000D02*
X100710000Y-137430000D01*
%TO.C,D17*%
X151420000Y-35830000D02*
X155320000Y-35830000D01*
X151420000Y-37830000D02*
X155320000Y-37830000D01*
X151420000Y-35830000D02*
X151420000Y-37830000D01*
%TO.C,D18*%
X152690000Y-157750000D02*
X156590000Y-157750000D01*
X152690000Y-159750000D02*
X156590000Y-159750000D01*
X152690000Y-157750000D02*
X152690000Y-159750000D01*
%TO.C,D19*%
X151420000Y-73930000D02*
X155320000Y-73930000D01*
X151420000Y-75930000D02*
X155320000Y-75930000D01*
X151420000Y-73930000D02*
X151420000Y-75930000D01*
%TO.C,D20*%
X159040000Y-92980000D02*
X162940000Y-92980000D01*
X159040000Y-94980000D02*
X162940000Y-94980000D01*
X159040000Y-92980000D02*
X159040000Y-94980000D01*
%TO.C,D21*%
X152690000Y-119650000D02*
X152690000Y-121650000D01*
X152690000Y-121650000D02*
X156590000Y-121650000D01*
X152690000Y-119650000D02*
X156590000Y-119650000D01*
%TO.C,D22*%
X152690000Y-138700000D02*
X152690000Y-140700000D01*
X152690000Y-140700000D02*
X156590000Y-140700000D01*
X152690000Y-138700000D02*
X156590000Y-138700000D01*
%TO.C,D23*%
X151420000Y-54880000D02*
X151420000Y-56880000D01*
X151420000Y-56880000D02*
X155320000Y-56880000D01*
X151420000Y-54880000D02*
X155320000Y-54880000D01*
%TO.C,J3*%
X77410000Y-170180000D02*
X77410000Y-168850000D01*
X77410000Y-168850000D02*
X78740000Y-168850000D01*
X77410000Y-171450000D02*
X80010000Y-171450000D01*
X80010000Y-171450000D02*
X80010000Y-168850000D01*
X80010000Y-168850000D02*
X128330000Y-168850000D01*
X128330000Y-174050000D02*
X128330000Y-168850000D01*
X77410000Y-174050000D02*
X128330000Y-174050000D01*
X77410000Y-174050000D02*
X77410000Y-171450000D01*
%TO.C,J6*%
X90230000Y-61020000D02*
X90230000Y-58360000D01*
X87630000Y-61020000D02*
X90230000Y-61020000D01*
X87630000Y-58360000D02*
X90230000Y-58360000D01*
X87630000Y-61020000D02*
X87630000Y-58360000D01*
X86360000Y-61020000D02*
X85030000Y-61020000D01*
X85030000Y-61020000D02*
X85030000Y-59690000D01*
%TO.C,J5*%
X133410000Y-19110000D02*
X133410000Y-16450000D01*
X130810000Y-19110000D02*
X133410000Y-19110000D01*
X130810000Y-16450000D02*
X133410000Y-16450000D01*
X130810000Y-19110000D02*
X130810000Y-16450000D01*
X129540000Y-19110000D02*
X128210000Y-19110000D01*
X128210000Y-19110000D02*
X128210000Y-17780000D01*
%TO.C,D2*%
X54900000Y-54880000D02*
X58800000Y-54880000D01*
X54900000Y-56880000D02*
X58800000Y-56880000D01*
X54900000Y-54880000D02*
X54900000Y-56880000D01*
%TO.C,D3*%
X54900000Y-73930000D02*
X58800000Y-73930000D01*
X54900000Y-75930000D02*
X58800000Y-75930000D01*
X54900000Y-73930000D02*
X54900000Y-75930000D01*
%TO.C,D1*%
X54900000Y-35830000D02*
X58800000Y-35830000D01*
X54900000Y-37830000D02*
X58800000Y-37830000D01*
X54900000Y-35830000D02*
X54900000Y-37830000D01*
%TO.C,J1*%
X52010000Y-91500000D02*
X52010000Y-90170000D01*
X53340000Y-91500000D02*
X52010000Y-91500000D01*
X54610000Y-91500000D02*
X54610000Y-88840000D01*
X54610000Y-88840000D02*
X72450000Y-88840000D01*
X54610000Y-91500000D02*
X72450000Y-91500000D01*
X72450000Y-91500000D02*
X72450000Y-88840000D01*
%TO.C,J4*%
X153610000Y-100390000D02*
X153610000Y-99060000D01*
X154940000Y-100390000D02*
X153610000Y-100390000D01*
X156210000Y-100390000D02*
X156210000Y-97730000D01*
X156210000Y-97730000D02*
X174050000Y-97730000D01*
X156210000Y-100390000D02*
X174050000Y-100390000D01*
X174050000Y-100390000D02*
X174050000Y-97730000D01*
%TO.C,REF\u002A\u002A*%
D10*
X78676666Y-67584380D02*
X78343333Y-67108190D01*
X78105238Y-67584380D02*
X78105238Y-66584380D01*
X78486190Y-66584380D01*
X78581428Y-66632000D01*
X78629047Y-66679619D01*
X78676666Y-66774857D01*
X78676666Y-66917714D01*
X78629047Y-67012952D01*
X78581428Y-67060571D01*
X78486190Y-67108190D01*
X78105238Y-67108190D01*
X79105238Y-67060571D02*
X79438571Y-67060571D01*
X79581428Y-67584380D02*
X79105238Y-67584380D01*
X79105238Y-66584380D01*
X79581428Y-66584380D01*
X80343333Y-67060571D02*
X80010000Y-67060571D01*
X80010000Y-67584380D02*
X80010000Y-66584380D01*
X80486190Y-66584380D01*
X81010000Y-66584380D02*
X81010000Y-66822476D01*
X80771904Y-66727238D02*
X81010000Y-66822476D01*
X81248095Y-66727238D01*
X80867142Y-67012952D02*
X81010000Y-66822476D01*
X81152857Y-67012952D01*
X81771904Y-66584380D02*
X81771904Y-66822476D01*
X81533809Y-66727238D02*
X81771904Y-66822476D01*
X82010000Y-66727238D01*
X81629047Y-67012952D02*
X81771904Y-66822476D01*
X81914761Y-67012952D01*
X74866666Y-67584380D02*
X74533333Y-67108190D01*
X74295238Y-67584380D02*
X74295238Y-66584380D01*
X74676190Y-66584380D01*
X74771428Y-66632000D01*
X74819047Y-66679619D01*
X74866666Y-66774857D01*
X74866666Y-66917714D01*
X74819047Y-67012952D01*
X74771428Y-67060571D01*
X74676190Y-67108190D01*
X74295238Y-67108190D01*
X75295238Y-67060571D02*
X75628571Y-67060571D01*
X75771428Y-67584380D02*
X75295238Y-67584380D01*
X75295238Y-66584380D01*
X75771428Y-66584380D01*
X76533333Y-67060571D02*
X76200000Y-67060571D01*
X76200000Y-67584380D02*
X76200000Y-66584380D01*
X76676190Y-66584380D01*
X77200000Y-66584380D02*
X77200000Y-66822476D01*
X76961904Y-66727238D02*
X77200000Y-66822476D01*
X77438095Y-66727238D01*
X77057142Y-67012952D02*
X77200000Y-66822476D01*
X77342857Y-67012952D01*
X77961904Y-66584380D02*
X77961904Y-66822476D01*
X77723809Y-66727238D02*
X77961904Y-66822476D01*
X78200000Y-66727238D01*
X77819047Y-67012952D02*
X77961904Y-66822476D01*
X78104761Y-67012952D01*
%TO.C,J2*%
X87296666Y-63162380D02*
X87296666Y-63876666D01*
X87249047Y-64019523D01*
X87153809Y-64114761D01*
X87010952Y-64162380D01*
X86915714Y-64162380D01*
X87725238Y-63257619D02*
X87772857Y-63210000D01*
X87868095Y-63162380D01*
X88106190Y-63162380D01*
X88201428Y-63210000D01*
X88249047Y-63257619D01*
X88296666Y-63352857D01*
X88296666Y-63448095D01*
X88249047Y-63590952D01*
X87677619Y-64162380D01*
X88296666Y-64162380D01*
%TO.C,D8*%
X124991904Y-36552380D02*
X124991904Y-35552380D01*
X125230000Y-35552380D01*
X125372857Y-35600000D01*
X125468095Y-35695238D01*
X125515714Y-35790476D01*
X125563333Y-35980952D01*
X125563333Y-36123809D01*
X125515714Y-36314285D01*
X125468095Y-36409523D01*
X125372857Y-36504761D01*
X125230000Y-36552380D01*
X124991904Y-36552380D01*
X126134761Y-35980952D02*
X126039523Y-35933333D01*
X125991904Y-35885714D01*
X125944285Y-35790476D01*
X125944285Y-35742857D01*
X125991904Y-35647619D01*
X126039523Y-35600000D01*
X126134761Y-35552380D01*
X126325238Y-35552380D01*
X126420476Y-35600000D01*
X126468095Y-35647619D01*
X126515714Y-35742857D01*
X126515714Y-35790476D01*
X126468095Y-35885714D01*
X126420476Y-35933333D01*
X126325238Y-35980952D01*
X126134761Y-35980952D01*
X126039523Y-36028571D01*
X125991904Y-36076190D01*
X125944285Y-36171428D01*
X125944285Y-36361904D01*
X125991904Y-36457142D01*
X126039523Y-36504761D01*
X126134761Y-36552380D01*
X126325238Y-36552380D01*
X126420476Y-36504761D01*
X126468095Y-36457142D01*
X126515714Y-36361904D01*
X126515714Y-36171428D01*
X126468095Y-36076190D01*
X126420476Y-36028571D01*
X126325238Y-35980952D01*
%TO.C,D16*%
X97845714Y-155932380D02*
X97845714Y-154932380D01*
X98083809Y-154932380D01*
X98226666Y-154980000D01*
X98321904Y-155075238D01*
X98369523Y-155170476D01*
X98417142Y-155360952D01*
X98417142Y-155503809D01*
X98369523Y-155694285D01*
X98321904Y-155789523D01*
X98226666Y-155884761D01*
X98083809Y-155932380D01*
X97845714Y-155932380D01*
X99369523Y-155932380D02*
X98798095Y-155932380D01*
X99083809Y-155932380D02*
X99083809Y-154932380D01*
X98988571Y-155075238D01*
X98893333Y-155170476D01*
X98798095Y-155218095D01*
X100226666Y-154932380D02*
X100036190Y-154932380D01*
X99940952Y-154980000D01*
X99893333Y-155027619D01*
X99798095Y-155170476D01*
X99750476Y-155360952D01*
X99750476Y-155741904D01*
X99798095Y-155837142D01*
X99845714Y-155884761D01*
X99940952Y-155932380D01*
X100131428Y-155932380D01*
X100226666Y-155884761D01*
X100274285Y-155837142D01*
X100321904Y-155741904D01*
X100321904Y-155503809D01*
X100274285Y-155408571D01*
X100226666Y-155360952D01*
X100131428Y-155313333D01*
X99940952Y-155313333D01*
X99845714Y-155360952D01*
X99798095Y-155408571D01*
X99750476Y-155503809D01*
%TO.C,D4*%
X57681904Y-120372380D02*
X57681904Y-119372380D01*
X57920000Y-119372380D01*
X58062857Y-119420000D01*
X58158095Y-119515238D01*
X58205714Y-119610476D01*
X58253333Y-119800952D01*
X58253333Y-119943809D01*
X58205714Y-120134285D01*
X58158095Y-120229523D01*
X58062857Y-120324761D01*
X57920000Y-120372380D01*
X57681904Y-120372380D01*
X59110476Y-119705714D02*
X59110476Y-120372380D01*
X58872380Y-119324761D02*
X58634285Y-120039047D01*
X59253333Y-120039047D01*
%TO.C,D5*%
X65301904Y-139422380D02*
X65301904Y-138422380D01*
X65540000Y-138422380D01*
X65682857Y-138470000D01*
X65778095Y-138565238D01*
X65825714Y-138660476D01*
X65873333Y-138850952D01*
X65873333Y-138993809D01*
X65825714Y-139184285D01*
X65778095Y-139279523D01*
X65682857Y-139374761D01*
X65540000Y-139422380D01*
X65301904Y-139422380D01*
X66778095Y-138422380D02*
X66301904Y-138422380D01*
X66254285Y-138898571D01*
X66301904Y-138850952D01*
X66397142Y-138803333D01*
X66635238Y-138803333D01*
X66730476Y-138850952D01*
X66778095Y-138898571D01*
X66825714Y-138993809D01*
X66825714Y-139231904D01*
X66778095Y-139327142D01*
X66730476Y-139374761D01*
X66635238Y-139422380D01*
X66397142Y-139422380D01*
X66301904Y-139374761D01*
X66254285Y-139327142D01*
%TO.C,D6*%
X47521904Y-139422380D02*
X47521904Y-138422380D01*
X47760000Y-138422380D01*
X47902857Y-138470000D01*
X47998095Y-138565238D01*
X48045714Y-138660476D01*
X48093333Y-138850952D01*
X48093333Y-138993809D01*
X48045714Y-139184285D01*
X47998095Y-139279523D01*
X47902857Y-139374761D01*
X47760000Y-139422380D01*
X47521904Y-139422380D01*
X48950476Y-138422380D02*
X48760000Y-138422380D01*
X48664761Y-138470000D01*
X48617142Y-138517619D01*
X48521904Y-138660476D01*
X48474285Y-138850952D01*
X48474285Y-139231904D01*
X48521904Y-139327142D01*
X48569523Y-139374761D01*
X48664761Y-139422380D01*
X48855238Y-139422380D01*
X48950476Y-139374761D01*
X48998095Y-139327142D01*
X49045714Y-139231904D01*
X49045714Y-138993809D01*
X48998095Y-138898571D01*
X48950476Y-138850952D01*
X48855238Y-138803333D01*
X48664761Y-138803333D01*
X48569523Y-138850952D01*
X48521904Y-138898571D01*
X48474285Y-138993809D01*
%TO.C,D7*%
X57681904Y-158472380D02*
X57681904Y-157472380D01*
X57920000Y-157472380D01*
X58062857Y-157520000D01*
X58158095Y-157615238D01*
X58205714Y-157710476D01*
X58253333Y-157900952D01*
X58253333Y-158043809D01*
X58205714Y-158234285D01*
X58158095Y-158329523D01*
X58062857Y-158424761D01*
X57920000Y-158472380D01*
X57681904Y-158472380D01*
X58586666Y-157472380D02*
X59253333Y-157472380D01*
X58824761Y-158472380D01*
%TO.C,D9*%
X98321904Y-35282380D02*
X98321904Y-34282380D01*
X98560000Y-34282380D01*
X98702857Y-34330000D01*
X98798095Y-34425238D01*
X98845714Y-34520476D01*
X98893333Y-34710952D01*
X98893333Y-34853809D01*
X98845714Y-35044285D01*
X98798095Y-35139523D01*
X98702857Y-35234761D01*
X98560000Y-35282380D01*
X98321904Y-35282380D01*
X99369523Y-35282380D02*
X99560000Y-35282380D01*
X99655238Y-35234761D01*
X99702857Y-35187142D01*
X99798095Y-35044285D01*
X99845714Y-34853809D01*
X99845714Y-34472857D01*
X99798095Y-34377619D01*
X99750476Y-34330000D01*
X99655238Y-34282380D01*
X99464761Y-34282380D01*
X99369523Y-34330000D01*
X99321904Y-34377619D01*
X99274285Y-34472857D01*
X99274285Y-34710952D01*
X99321904Y-34806190D01*
X99369523Y-34853809D01*
X99464761Y-34901428D01*
X99655238Y-34901428D01*
X99750476Y-34853809D01*
X99798095Y-34806190D01*
X99845714Y-34710952D01*
%TO.C,D10*%
X97845714Y-56872380D02*
X97845714Y-55872380D01*
X98083809Y-55872380D01*
X98226666Y-55920000D01*
X98321904Y-56015238D01*
X98369523Y-56110476D01*
X98417142Y-56300952D01*
X98417142Y-56443809D01*
X98369523Y-56634285D01*
X98321904Y-56729523D01*
X98226666Y-56824761D01*
X98083809Y-56872380D01*
X97845714Y-56872380D01*
X99369523Y-56872380D02*
X98798095Y-56872380D01*
X99083809Y-56872380D02*
X99083809Y-55872380D01*
X98988571Y-56015238D01*
X98893333Y-56110476D01*
X98798095Y-56158095D01*
X99988571Y-55872380D02*
X100083809Y-55872380D01*
X100179047Y-55920000D01*
X100226666Y-55967619D01*
X100274285Y-56062857D01*
X100321904Y-56253333D01*
X100321904Y-56491428D01*
X100274285Y-56681904D01*
X100226666Y-56777142D01*
X100179047Y-56824761D01*
X100083809Y-56872380D01*
X99988571Y-56872380D01*
X99893333Y-56824761D01*
X99845714Y-56777142D01*
X99798095Y-56681904D01*
X99750476Y-56491428D01*
X99750476Y-56253333D01*
X99798095Y-56062857D01*
X99845714Y-55967619D01*
X99893333Y-55920000D01*
X99988571Y-55872380D01*
%TO.C,D11*%
X116895714Y-61952380D02*
X116895714Y-60952380D01*
X117133809Y-60952380D01*
X117276666Y-61000000D01*
X117371904Y-61095238D01*
X117419523Y-61190476D01*
X117467142Y-61380952D01*
X117467142Y-61523809D01*
X117419523Y-61714285D01*
X117371904Y-61809523D01*
X117276666Y-61904761D01*
X117133809Y-61952380D01*
X116895714Y-61952380D01*
X118419523Y-61952380D02*
X117848095Y-61952380D01*
X118133809Y-61952380D02*
X118133809Y-60952380D01*
X118038571Y-61095238D01*
X117943333Y-61190476D01*
X117848095Y-61238095D01*
X119371904Y-61952380D02*
X118800476Y-61952380D01*
X119086190Y-61952380D02*
X119086190Y-60952380D01*
X118990952Y-61095238D01*
X118895714Y-61190476D01*
X118800476Y-61238095D01*
%TO.C,D12*%
X97845714Y-75922380D02*
X97845714Y-74922380D01*
X98083809Y-74922380D01*
X98226666Y-74970000D01*
X98321904Y-75065238D01*
X98369523Y-75160476D01*
X98417142Y-75350952D01*
X98417142Y-75493809D01*
X98369523Y-75684285D01*
X98321904Y-75779523D01*
X98226666Y-75874761D01*
X98083809Y-75922380D01*
X97845714Y-75922380D01*
X99369523Y-75922380D02*
X98798095Y-75922380D01*
X99083809Y-75922380D02*
X99083809Y-74922380D01*
X98988571Y-75065238D01*
X98893333Y-75160476D01*
X98798095Y-75208095D01*
X99750476Y-75017619D02*
X99798095Y-74970000D01*
X99893333Y-74922380D01*
X100131428Y-74922380D01*
X100226666Y-74970000D01*
X100274285Y-75017619D01*
X100321904Y-75112857D01*
X100321904Y-75208095D01*
X100274285Y-75350952D01*
X99702857Y-75922380D01*
X100321904Y-75922380D01*
%TO.C,D13*%
X97845714Y-94972380D02*
X97845714Y-93972380D01*
X98083809Y-93972380D01*
X98226666Y-94020000D01*
X98321904Y-94115238D01*
X98369523Y-94210476D01*
X98417142Y-94400952D01*
X98417142Y-94543809D01*
X98369523Y-94734285D01*
X98321904Y-94829523D01*
X98226666Y-94924761D01*
X98083809Y-94972380D01*
X97845714Y-94972380D01*
X99369523Y-94972380D02*
X98798095Y-94972380D01*
X99083809Y-94972380D02*
X99083809Y-93972380D01*
X98988571Y-94115238D01*
X98893333Y-94210476D01*
X98798095Y-94258095D01*
X99702857Y-93972380D02*
X100321904Y-93972380D01*
X99988571Y-94353333D01*
X100131428Y-94353333D01*
X100226666Y-94400952D01*
X100274285Y-94448571D01*
X100321904Y-94543809D01*
X100321904Y-94781904D01*
X100274285Y-94877142D01*
X100226666Y-94924761D01*
X100131428Y-94972380D01*
X99845714Y-94972380D01*
X99750476Y-94924761D01*
X99702857Y-94877142D01*
%TO.C,D14*%
X97845714Y-117832380D02*
X97845714Y-116832380D01*
X98083809Y-116832380D01*
X98226666Y-116880000D01*
X98321904Y-116975238D01*
X98369523Y-117070476D01*
X98417142Y-117260952D01*
X98417142Y-117403809D01*
X98369523Y-117594285D01*
X98321904Y-117689523D01*
X98226666Y-117784761D01*
X98083809Y-117832380D01*
X97845714Y-117832380D01*
X99369523Y-117832380D02*
X98798095Y-117832380D01*
X99083809Y-117832380D02*
X99083809Y-116832380D01*
X98988571Y-116975238D01*
X98893333Y-117070476D01*
X98798095Y-117118095D01*
X100226666Y-117165714D02*
X100226666Y-117832380D01*
X99988571Y-116784761D02*
X99750476Y-117499047D01*
X100369523Y-117499047D01*
%TO.C,D15*%
X97845714Y-136882380D02*
X97845714Y-135882380D01*
X98083809Y-135882380D01*
X98226666Y-135930000D01*
X98321904Y-136025238D01*
X98369523Y-136120476D01*
X98417142Y-136310952D01*
X98417142Y-136453809D01*
X98369523Y-136644285D01*
X98321904Y-136739523D01*
X98226666Y-136834761D01*
X98083809Y-136882380D01*
X97845714Y-136882380D01*
X99369523Y-136882380D02*
X98798095Y-136882380D01*
X99083809Y-136882380D02*
X99083809Y-135882380D01*
X98988571Y-136025238D01*
X98893333Y-136120476D01*
X98798095Y-136168095D01*
X100274285Y-135882380D02*
X99798095Y-135882380D01*
X99750476Y-136358571D01*
X99798095Y-136310952D01*
X99893333Y-136263333D01*
X100131428Y-136263333D01*
X100226666Y-136310952D01*
X100274285Y-136358571D01*
X100321904Y-136453809D01*
X100321904Y-136691904D01*
X100274285Y-136787142D01*
X100226666Y-136834761D01*
X100131428Y-136882380D01*
X99893333Y-136882380D01*
X99798095Y-136834761D01*
X99750476Y-136787142D01*
%TO.C,D17*%
X152455714Y-35282380D02*
X152455714Y-34282380D01*
X152693809Y-34282380D01*
X152836666Y-34330000D01*
X152931904Y-34425238D01*
X152979523Y-34520476D01*
X153027142Y-34710952D01*
X153027142Y-34853809D01*
X152979523Y-35044285D01*
X152931904Y-35139523D01*
X152836666Y-35234761D01*
X152693809Y-35282380D01*
X152455714Y-35282380D01*
X153979523Y-35282380D02*
X153408095Y-35282380D01*
X153693809Y-35282380D02*
X153693809Y-34282380D01*
X153598571Y-34425238D01*
X153503333Y-34520476D01*
X153408095Y-34568095D01*
X154312857Y-34282380D02*
X154979523Y-34282380D01*
X154550952Y-35282380D01*
%TO.C,D18*%
X153725714Y-157202380D02*
X153725714Y-156202380D01*
X153963809Y-156202380D01*
X154106666Y-156250000D01*
X154201904Y-156345238D01*
X154249523Y-156440476D01*
X154297142Y-156630952D01*
X154297142Y-156773809D01*
X154249523Y-156964285D01*
X154201904Y-157059523D01*
X154106666Y-157154761D01*
X153963809Y-157202380D01*
X153725714Y-157202380D01*
X155249523Y-157202380D02*
X154678095Y-157202380D01*
X154963809Y-157202380D02*
X154963809Y-156202380D01*
X154868571Y-156345238D01*
X154773333Y-156440476D01*
X154678095Y-156488095D01*
X155820952Y-156630952D02*
X155725714Y-156583333D01*
X155678095Y-156535714D01*
X155630476Y-156440476D01*
X155630476Y-156392857D01*
X155678095Y-156297619D01*
X155725714Y-156250000D01*
X155820952Y-156202380D01*
X156011428Y-156202380D01*
X156106666Y-156250000D01*
X156154285Y-156297619D01*
X156201904Y-156392857D01*
X156201904Y-156440476D01*
X156154285Y-156535714D01*
X156106666Y-156583333D01*
X156011428Y-156630952D01*
X155820952Y-156630952D01*
X155725714Y-156678571D01*
X155678095Y-156726190D01*
X155630476Y-156821428D01*
X155630476Y-157011904D01*
X155678095Y-157107142D01*
X155725714Y-157154761D01*
X155820952Y-157202380D01*
X156011428Y-157202380D01*
X156106666Y-157154761D01*
X156154285Y-157107142D01*
X156201904Y-157011904D01*
X156201904Y-156821428D01*
X156154285Y-156726190D01*
X156106666Y-156678571D01*
X156011428Y-156630952D01*
%TO.C,D19*%
X152455714Y-73382380D02*
X152455714Y-72382380D01*
X152693809Y-72382380D01*
X152836666Y-72430000D01*
X152931904Y-72525238D01*
X152979523Y-72620476D01*
X153027142Y-72810952D01*
X153027142Y-72953809D01*
X152979523Y-73144285D01*
X152931904Y-73239523D01*
X152836666Y-73334761D01*
X152693809Y-73382380D01*
X152455714Y-73382380D01*
X153979523Y-73382380D02*
X153408095Y-73382380D01*
X153693809Y-73382380D02*
X153693809Y-72382380D01*
X153598571Y-72525238D01*
X153503333Y-72620476D01*
X153408095Y-72668095D01*
X154455714Y-73382380D02*
X154646190Y-73382380D01*
X154741428Y-73334761D01*
X154789047Y-73287142D01*
X154884285Y-73144285D01*
X154931904Y-72953809D01*
X154931904Y-72572857D01*
X154884285Y-72477619D01*
X154836666Y-72430000D01*
X154741428Y-72382380D01*
X154550952Y-72382380D01*
X154455714Y-72430000D01*
X154408095Y-72477619D01*
X154360476Y-72572857D01*
X154360476Y-72810952D01*
X154408095Y-72906190D01*
X154455714Y-72953809D01*
X154550952Y-73001428D01*
X154741428Y-73001428D01*
X154836666Y-72953809D01*
X154884285Y-72906190D01*
X154931904Y-72810952D01*
%TO.C,D20*%
X160075714Y-92432380D02*
X160075714Y-91432380D01*
X160313809Y-91432380D01*
X160456666Y-91480000D01*
X160551904Y-91575238D01*
X160599523Y-91670476D01*
X160647142Y-91860952D01*
X160647142Y-92003809D01*
X160599523Y-92194285D01*
X160551904Y-92289523D01*
X160456666Y-92384761D01*
X160313809Y-92432380D01*
X160075714Y-92432380D01*
X161028095Y-91527619D02*
X161075714Y-91480000D01*
X161170952Y-91432380D01*
X161409047Y-91432380D01*
X161504285Y-91480000D01*
X161551904Y-91527619D01*
X161599523Y-91622857D01*
X161599523Y-91718095D01*
X161551904Y-91860952D01*
X160980476Y-92432380D01*
X161599523Y-92432380D01*
X162218571Y-91432380D02*
X162313809Y-91432380D01*
X162409047Y-91480000D01*
X162456666Y-91527619D01*
X162504285Y-91622857D01*
X162551904Y-91813333D01*
X162551904Y-92051428D01*
X162504285Y-92241904D01*
X162456666Y-92337142D01*
X162409047Y-92384761D01*
X162313809Y-92432380D01*
X162218571Y-92432380D01*
X162123333Y-92384761D01*
X162075714Y-92337142D01*
X162028095Y-92241904D01*
X161980476Y-92051428D01*
X161980476Y-91813333D01*
X162028095Y-91622857D01*
X162075714Y-91527619D01*
X162123333Y-91480000D01*
X162218571Y-91432380D01*
%TO.C,D21*%
X153725714Y-119102380D02*
X153725714Y-118102380D01*
X153963809Y-118102380D01*
X154106666Y-118150000D01*
X154201904Y-118245238D01*
X154249523Y-118340476D01*
X154297142Y-118530952D01*
X154297142Y-118673809D01*
X154249523Y-118864285D01*
X154201904Y-118959523D01*
X154106666Y-119054761D01*
X153963809Y-119102380D01*
X153725714Y-119102380D01*
X154678095Y-118197619D02*
X154725714Y-118150000D01*
X154820952Y-118102380D01*
X155059047Y-118102380D01*
X155154285Y-118150000D01*
X155201904Y-118197619D01*
X155249523Y-118292857D01*
X155249523Y-118388095D01*
X155201904Y-118530952D01*
X154630476Y-119102380D01*
X155249523Y-119102380D01*
X156201904Y-119102380D02*
X155630476Y-119102380D01*
X155916190Y-119102380D02*
X155916190Y-118102380D01*
X155820952Y-118245238D01*
X155725714Y-118340476D01*
X155630476Y-118388095D01*
%TO.C,D22*%
X153725714Y-138152380D02*
X153725714Y-137152380D01*
X153963809Y-137152380D01*
X154106666Y-137200000D01*
X154201904Y-137295238D01*
X154249523Y-137390476D01*
X154297142Y-137580952D01*
X154297142Y-137723809D01*
X154249523Y-137914285D01*
X154201904Y-138009523D01*
X154106666Y-138104761D01*
X153963809Y-138152380D01*
X153725714Y-138152380D01*
X154678095Y-137247619D02*
X154725714Y-137200000D01*
X154820952Y-137152380D01*
X155059047Y-137152380D01*
X155154285Y-137200000D01*
X155201904Y-137247619D01*
X155249523Y-137342857D01*
X155249523Y-137438095D01*
X155201904Y-137580952D01*
X154630476Y-138152380D01*
X155249523Y-138152380D01*
X155630476Y-137247619D02*
X155678095Y-137200000D01*
X155773333Y-137152380D01*
X156011428Y-137152380D01*
X156106666Y-137200000D01*
X156154285Y-137247619D01*
X156201904Y-137342857D01*
X156201904Y-137438095D01*
X156154285Y-137580952D01*
X155582857Y-138152380D01*
X156201904Y-138152380D01*
%TO.C,D23*%
X152455714Y-54332380D02*
X152455714Y-53332380D01*
X152693809Y-53332380D01*
X152836666Y-53380000D01*
X152931904Y-53475238D01*
X152979523Y-53570476D01*
X153027142Y-53760952D01*
X153027142Y-53903809D01*
X152979523Y-54094285D01*
X152931904Y-54189523D01*
X152836666Y-54284761D01*
X152693809Y-54332380D01*
X152455714Y-54332380D01*
X153408095Y-53427619D02*
X153455714Y-53380000D01*
X153550952Y-53332380D01*
X153789047Y-53332380D01*
X153884285Y-53380000D01*
X153931904Y-53427619D01*
X153979523Y-53522857D01*
X153979523Y-53618095D01*
X153931904Y-53760952D01*
X153360476Y-54332380D01*
X153979523Y-54332380D01*
X154312857Y-53332380D02*
X154931904Y-53332380D01*
X154598571Y-53713333D01*
X154741428Y-53713333D01*
X154836666Y-53760952D01*
X154884285Y-53808571D01*
X154931904Y-53903809D01*
X154931904Y-54141904D01*
X154884285Y-54237142D01*
X154836666Y-54284761D01*
X154741428Y-54332380D01*
X154455714Y-54332380D01*
X154360476Y-54284761D01*
X154312857Y-54237142D01*
%TO.C,J3*%
X75422380Y-171783333D02*
X76136666Y-171783333D01*
X76279523Y-171830952D01*
X76374761Y-171926190D01*
X76422380Y-172069047D01*
X76422380Y-172164285D01*
X75422380Y-171402380D02*
X75422380Y-170783333D01*
X75803333Y-171116666D01*
X75803333Y-170973809D01*
X75850952Y-170878571D01*
X75898571Y-170830952D01*
X75993809Y-170783333D01*
X76231904Y-170783333D01*
X76327142Y-170830952D01*
X76374761Y-170878571D01*
X76422380Y-170973809D01*
X76422380Y-171259523D01*
X76374761Y-171354761D01*
X76327142Y-171402380D01*
%TO.C,J6*%
X83482380Y-60023333D02*
X84196666Y-60023333D01*
X84339523Y-60070952D01*
X84434761Y-60166190D01*
X84482380Y-60309047D01*
X84482380Y-60404285D01*
X83482380Y-59118571D02*
X83482380Y-59309047D01*
X83530000Y-59404285D01*
X83577619Y-59451904D01*
X83720476Y-59547142D01*
X83910952Y-59594761D01*
X84291904Y-59594761D01*
X84387142Y-59547142D01*
X84434761Y-59499523D01*
X84482380Y-59404285D01*
X84482380Y-59213809D01*
X84434761Y-59118571D01*
X84387142Y-59070952D01*
X84291904Y-59023333D01*
X84053809Y-59023333D01*
X83958571Y-59070952D01*
X83910952Y-59118571D01*
X83863333Y-59213809D01*
X83863333Y-59404285D01*
X83910952Y-59499523D01*
X83958571Y-59547142D01*
X84053809Y-59594761D01*
%TO.C,J5*%
X126662380Y-18113333D02*
X127376666Y-18113333D01*
X127519523Y-18160952D01*
X127614761Y-18256190D01*
X127662380Y-18399047D01*
X127662380Y-18494285D01*
X126662380Y-17160952D02*
X126662380Y-17637142D01*
X127138571Y-17684761D01*
X127090952Y-17637142D01*
X127043333Y-17541904D01*
X127043333Y-17303809D01*
X127090952Y-17208571D01*
X127138571Y-17160952D01*
X127233809Y-17113333D01*
X127471904Y-17113333D01*
X127567142Y-17160952D01*
X127614761Y-17208571D01*
X127662380Y-17303809D01*
X127662380Y-17541904D01*
X127614761Y-17637142D01*
X127567142Y-17684761D01*
%TO.C,D2*%
X56411904Y-54332380D02*
X56411904Y-53332380D01*
X56650000Y-53332380D01*
X56792857Y-53380000D01*
X56888095Y-53475238D01*
X56935714Y-53570476D01*
X56983333Y-53760952D01*
X56983333Y-53903809D01*
X56935714Y-54094285D01*
X56888095Y-54189523D01*
X56792857Y-54284761D01*
X56650000Y-54332380D01*
X56411904Y-54332380D01*
X57364285Y-53427619D02*
X57411904Y-53380000D01*
X57507142Y-53332380D01*
X57745238Y-53332380D01*
X57840476Y-53380000D01*
X57888095Y-53427619D01*
X57935714Y-53522857D01*
X57935714Y-53618095D01*
X57888095Y-53760952D01*
X57316666Y-54332380D01*
X57935714Y-54332380D01*
%TO.C,D3*%
X56411904Y-73382380D02*
X56411904Y-72382380D01*
X56650000Y-72382380D01*
X56792857Y-72430000D01*
X56888095Y-72525238D01*
X56935714Y-72620476D01*
X56983333Y-72810952D01*
X56983333Y-72953809D01*
X56935714Y-73144285D01*
X56888095Y-73239523D01*
X56792857Y-73334761D01*
X56650000Y-73382380D01*
X56411904Y-73382380D01*
X57316666Y-72382380D02*
X57935714Y-72382380D01*
X57602380Y-72763333D01*
X57745238Y-72763333D01*
X57840476Y-72810952D01*
X57888095Y-72858571D01*
X57935714Y-72953809D01*
X57935714Y-73191904D01*
X57888095Y-73287142D01*
X57840476Y-73334761D01*
X57745238Y-73382380D01*
X57459523Y-73382380D01*
X57364285Y-73334761D01*
X57316666Y-73287142D01*
%TO.C,D1*%
X56411904Y-35282380D02*
X56411904Y-34282380D01*
X56650000Y-34282380D01*
X56792857Y-34330000D01*
X56888095Y-34425238D01*
X56935714Y-34520476D01*
X56983333Y-34710952D01*
X56983333Y-34853809D01*
X56935714Y-35044285D01*
X56888095Y-35139523D01*
X56792857Y-35234761D01*
X56650000Y-35282380D01*
X56411904Y-35282380D01*
X57935714Y-35282380D02*
X57364285Y-35282380D01*
X57650000Y-35282380D02*
X57650000Y-34282380D01*
X57554761Y-34425238D01*
X57459523Y-34520476D01*
X57364285Y-34568095D01*
%TO.C,J1*%
X50462380Y-90503333D02*
X51176666Y-90503333D01*
X51319523Y-90550952D01*
X51414761Y-90646190D01*
X51462380Y-90789047D01*
X51462380Y-90884285D01*
X51462380Y-89503333D02*
X51462380Y-90074761D01*
X51462380Y-89789047D02*
X50462380Y-89789047D01*
X50605238Y-89884285D01*
X50700476Y-89979523D01*
X50748095Y-90074761D01*
%TO.C,J4*%
X152062380Y-99393333D02*
X152776666Y-99393333D01*
X152919523Y-99440952D01*
X153014761Y-99536190D01*
X153062380Y-99679047D01*
X153062380Y-99774285D01*
X152395714Y-98488571D02*
X153062380Y-98488571D01*
X152014761Y-98726666D02*
X152729047Y-98964761D01*
X152729047Y-98345714D01*
%TD*%
M02*
