%TF.GenerationSoftware,KiCad,Pcbnew,(5.1.10-1-10_14)*%
%TF.CreationDate,2021-05-06T19:08:34+01:00*%
%TF.ProjectId,haxophone001,6861786f-7068-46f6-9e65-3030312e6b69,rev?*%
%TF.SameCoordinates,Original*%
%TF.FileFunction,Paste,Top*%
%TF.FilePolarity,Positive*%
%FSLAX46Y46*%
G04 Gerber Fmt 4.6, Leading zero omitted, Abs format (unit mm)*
G04 Created by KiCad (PCBNEW (5.1.10-1-10_14)) date 2021-05-06 19:08:34*
%MOMM*%
%LPD*%
G01*
G04 APERTURE LIST*
%ADD10R,0.900000X1.200000*%
G04 APERTURE END LIST*
D10*
%TO.C,D8*%
X127380000Y-38100000D03*
X124080000Y-38100000D03*
%TD*%
%TO.C,D16*%
X100710000Y-157480000D03*
X97410000Y-157480000D03*
%TD*%
%TO.C,D4*%
X60070000Y-121920000D03*
X56770000Y-121920000D03*
%TD*%
%TO.C,D5*%
X67690000Y-140970000D03*
X64390000Y-140970000D03*
%TD*%
%TO.C,D6*%
X49910000Y-140970000D03*
X46610000Y-140970000D03*
%TD*%
%TO.C,D7*%
X60070000Y-160020000D03*
X56770000Y-160020000D03*
%TD*%
%TO.C,D9*%
X97410000Y-36830000D03*
X100710000Y-36830000D03*
%TD*%
%TO.C,D10*%
X97410000Y-58420000D03*
X100710000Y-58420000D03*
%TD*%
%TO.C,D11*%
X116460000Y-63500000D03*
X119760000Y-63500000D03*
%TD*%
%TO.C,D12*%
X100710000Y-77470000D03*
X97410000Y-77470000D03*
%TD*%
%TO.C,D13*%
X100710000Y-96520000D03*
X97410000Y-96520000D03*
%TD*%
%TO.C,D14*%
X100710000Y-119380000D03*
X97410000Y-119380000D03*
%TD*%
%TO.C,D15*%
X100710000Y-138430000D03*
X97410000Y-138430000D03*
%TD*%
%TO.C,D17*%
X152020000Y-36830000D03*
X155320000Y-36830000D03*
%TD*%
%TO.C,D18*%
X153290000Y-158750000D03*
X156590000Y-158750000D03*
%TD*%
%TO.C,D19*%
X152020000Y-74930000D03*
X155320000Y-74930000D03*
%TD*%
%TO.C,D20*%
X159640000Y-93980000D03*
X162940000Y-93980000D03*
%TD*%
%TO.C,D21*%
X156590000Y-120650000D03*
X153290000Y-120650000D03*
%TD*%
%TO.C,D22*%
X156590000Y-139700000D03*
X153290000Y-139700000D03*
%TD*%
%TO.C,D23*%
X155320000Y-55880000D03*
X152020000Y-55880000D03*
%TD*%
%TO.C,D2*%
X55500000Y-55880000D03*
X58800000Y-55880000D03*
%TD*%
%TO.C,D3*%
X55500000Y-74930000D03*
X58800000Y-74930000D03*
%TD*%
%TO.C,D1*%
X55500000Y-36830000D03*
X58800000Y-36830000D03*
%TD*%
M02*
